<svg width="38" height="38" viewBox="0 0 38 38" fill="none" xmlns="http://www.w3.org/2000/svg">
<path d="M26.5751 7.365L30.6346 11.4226M29.1856 3.79042L18.2089 14.7672C17.6417 15.3335 17.2549 16.0551 17.0972 16.841L16.0833 21.9163L21.1586 20.9005C21.9445 20.7433 22.6651 20.3581 23.2325 19.7908L34.2092 8.814C34.5391 8.48415 34.8007 8.09256 34.9793 7.66158C35.1578 7.23061 35.2496 6.76869 35.2496 6.30221C35.2496 5.83573 35.1578 5.37381 34.9793 4.94284C34.8007 4.51186 34.5391 4.12027 34.2092 3.79042C33.8794 3.46057 33.4878 3.19891 33.0568 3.0204C32.6258 2.84188 32.1639 2.75 31.6974 2.75C31.231 2.75 30.769 2.84188 30.3381 3.0204C29.9071 3.19891 29.5155 3.46056 29.1856 3.79042Z" stroke="white" stroke-opacity="0.5" stroke-width="3.83333" stroke-linecap="round" stroke-linejoin="round"/>
<path d="M31.4167 25.7487V31.4987C31.4167 32.5154 31.0128 33.4904 30.2939 34.2093C29.575 34.9282 28.6 35.332 27.5834 35.332H6.50002C5.48336 35.332 4.50833 34.9282 3.78944 34.2093C3.07055 33.4904 2.66669 32.5154 2.66669 31.4987V10.4154C2.66669 9.3987 3.07055 8.42368 3.78944 7.70479C4.50833 6.9859 5.48336 6.58203 6.50002 6.58203H12.25" stroke="white" stroke-opacity="0.5" stroke-width="3.83333" stroke-linecap="round" stroke-linejoin="round"/>
</svg>
