<svg width="1920" height="1932" viewBox="0 0 1920 1932" fill="none" xmlns="http://www.w3.org/2000/svg">
<path fillRule="evenodd" clipRule="evenodd" d="M0.000976562 0.684834C0.000976562 0.306611 0.307587 0 0.68581 0H1919.32C1919.69 0 1920 0.306611 1920 0.684834L1920 0.696897L1920 0.71935V161.485C1920 161.497 1920 161.508 1920 161.52C1920 161.531 1920 161.543 1920 161.554V322.314C1920 322.325 1920 322.337 1920 322.348C1920 322.36 1920 322.371 1920 322.383V483.151C1920 483.163 1920 483.174 1920 483.186C1920 483.198 1920 483.209 1920 483.22V643.977C1920 643.989 1920 644 1920 644.012C1920 644.023 1920 644.035 1920 644.046V804.815C1920 804.826 1920 804.838 1920 804.849C1920 804.861 1920 804.872 1920 804.884V965.641C1920 965.652 1920 965.664 1920 965.675L1920 965.687L1920 965.71V1126.48L1920 1126.49L1920 1126.51C1920 1126.52 1920 1126.54 1920 1126.55V1287.31C1920 1287.32 1920 1287.33 1920 1287.34C1920 1287.35 1920 1287.36 1920 1287.38V1448.14L1920 1448.16L1920 1448.18C1920 1448.19 1920 1448.2 1920 1448.21V1608.98C1920 1608.99 1920 1609 1920 1609.01C1920 1609.02 1920 1609.04 1920 1609.05V1769.8C1920 1769.82 1920 1769.83 1920 1769.84L1920 1769.86L1920 1769.87V1930.68C1920 1930.7 1920 1930.72 1920 1930.75C1919.97 1930.98 1919.83 1931.18 1919.63 1931.28C1919.54 1931.33 1919.43 1931.36 1919.31 1931.36H0.684834C0.30661 1931.36 0 1931.06 0 1930.68C0 1930.66 0.00043517 1930.65 0.00129294 1930.63V1769.86L0.000976562 1769.84L0.00129294 1769.82V1609.03L0.000976562 1609.01L0.00129294 1608.99V1448.2L0.000976562 1448.18L0.00129294 1448.16V1287.36L0.000976562 1287.34L0.00129294 1287.32V1126.53L0.000976562 1126.51L0.00129294 1126.49V965.696L0.000976562 965.675L0.00129294 965.654V804.87C0.00108253 804.863 0.000976562 804.856 0.000976562 804.849C0.000976562 804.842 0.00108253 804.835 0.00129294 804.828V644.033C0.00108253 644.026 0.000976562 644.019 0.000976562 644.012C0.000976562 644.005 0.00108253 643.998 0.00129294 643.991V483.207C0.00108253 483.2 0.000976562 483.193 0.000976562 483.186C0.000976562 483.179 0.00108253 483.172 0.00129294 483.165V322.369C0.00108253 322.362 0.000976562 322.355 0.000976562 322.348C0.000976562 322.341 0.00108253 322.334 0.00129294 322.327V161.541C0.00108253 161.534 0.000976562 161.527 0.000976562 161.52C0.000976562 161.513 0.00108253 161.506 0.00129294 161.499V0.705852C0.00108253 0.698871 0.000976562 0.691865 0.000976562 0.684834ZM1918.63 1770.52V1929.18H1760.11V1770.52H1918.63ZM1758.74 1770.52V1929.18H1600.23V1770.52H1758.74ZM1598.86 1770.52V1929.18H1440.34V1770.52H1598.86ZM1438.97 1770.52V1929.18H1280.45V1770.52H1438.97ZM1279.08 1770.52V1929.18H1120.57V1770.52H1279.08ZM1119.2 1770.52V1929.18H960.681V1770.52H1119.2ZM959.311 1770.52V1929.18H800.8V1770.52H959.311ZM799.43 1770.52V1929.18H640.91V1770.52H799.43ZM639.54 1770.52V1929.18H481.03V1770.52H639.54ZM479.66 1770.52V1929.18H321.14V1770.52H479.66ZM319.771 1770.52V1929.18H161.261V1770.52H319.771ZM159.891 1770.52V1929.18H1.37096V1770.52H159.891ZM1.37096 1769.15H159.891V1609.7H1.37096V1769.15ZM161.261 1769.15H319.771V1609.7H161.261V1769.15ZM321.14 1769.15H479.66V1609.7H321.14V1769.15ZM481.03 1769.15H639.54V1609.7H481.03V1769.15ZM640.91 1769.15H799.43V1609.7H640.91V1769.15ZM800.8 1769.15H959.311V1609.7H800.8V1769.15ZM960.681 1769.15H1119.2V1609.7H960.681V1769.15ZM1120.57 1769.15H1279.08V1609.7H1120.57V1769.15ZM1280.45 1769.15H1438.97V1609.7H1280.45V1769.15ZM1440.34 1769.15H1598.86V1609.7H1440.34V1769.15ZM1600.23 1769.15H1758.74V1609.7H1600.23V1769.15ZM1760.11 1769.15H1918.63V1609.7H1760.11V1769.15ZM1918.63 1448.86V1608.33H1760.11V1448.86H1918.63ZM1758.74 1448.86V1608.33H1600.23V1448.86H1758.74ZM1598.86 1448.86V1608.33H1440.34V1448.86H1598.86ZM1438.97 1448.86V1608.33H1280.45V1448.86H1438.97ZM1279.08 1448.86V1608.33H1120.57V1448.86H1279.08ZM1119.2 1448.86V1608.33H960.681V1448.86H1119.2ZM959.311 1448.86V1608.33H800.8V1448.86H959.311ZM799.43 1448.86V1608.33H640.91V1448.86H799.43ZM639.54 1448.86V1608.33H481.03V1448.86H639.54ZM479.66 1448.86V1608.33H321.14V1448.86H479.66ZM319.771 1448.86V1608.33H161.261V1448.86H319.771ZM159.891 1448.86V1608.33H1.37096V1448.86H159.891ZM1.37096 1447.49H159.891V1288.03H1.37096V1447.49ZM161.261 1447.49H319.771V1288.03H161.261V1447.49ZM321.14 1447.49H479.66V1288.03H321.14V1447.49ZM481.03 1447.49H639.54V1288.03H481.03V1447.49ZM640.91 1447.49H799.43V1288.03H640.91V1447.49ZM800.8 1447.49H959.311V1288.03H800.8V1447.49ZM960.681 1447.49H1119.2V1288.03H960.681V1447.49ZM1120.57 1447.49H1279.08V1288.03H1120.57V1447.49ZM1280.45 1447.49H1438.97V1288.03H1280.45V1447.49ZM1440.34 1447.49H1598.86V1288.03H1440.34V1447.49ZM1600.23 1447.49H1758.74V1288.03H1600.23V1447.49ZM1760.11 1447.49H1918.63V1288.03H1760.11V1447.49ZM1918.63 1127.2V1286.66H1760.11V1127.2H1918.63ZM1758.74 1127.2V1286.66H1600.23V1127.2H1758.74ZM1598.86 1127.2V1286.66H1440.34V1127.2H1598.86ZM1438.97 1127.2V1286.66H1280.45V1127.2H1438.97ZM1279.08 1127.2V1286.66H1120.57V1127.2H1279.08ZM1119.2 1127.2V1286.66H960.681V1127.2H1119.2ZM959.311 1127.2V1286.66H800.8V1127.2H959.311ZM799.43 1127.2V1286.66H640.91V1127.2H799.43ZM639.54 1127.2V1286.66H481.03V1127.2H639.54ZM479.66 1127.2V1286.66H321.14V1127.2H479.66ZM319.771 1127.2V1286.66H161.261V1127.2H319.771ZM159.891 1127.2V1286.66H1.37096V1127.2H159.891ZM1.37096 1125.83H159.891V966.36H1.37096V1125.83ZM161.261 1125.83H319.771V966.36H161.261V1125.83ZM321.14 1125.83H479.66V966.36H321.14V1125.83ZM481.03 1125.83H639.54V966.36H481.03V1125.83ZM640.91 1125.83H799.43V966.36H640.91V1125.83ZM800.8 1125.83H959.311V966.36H800.8V1125.83ZM960.681 1125.83H1119.2V966.36H960.681V1125.83ZM1120.57 1125.83H1279.08V966.36H1120.57V1125.83ZM1280.45 1125.83H1438.97V966.36H1280.45V1125.83ZM1440.34 1125.83H1598.86V966.36H1440.34V1125.83ZM1600.23 1125.83H1758.74V966.36H1600.23V1125.83ZM1760.11 1125.83H1918.63V966.36H1760.11V1125.83ZM1918.63 805.534V964.99H1760.11V805.534H1918.63ZM1758.74 805.534V964.99H1600.23V805.534H1758.74ZM1598.86 805.534V964.99H1440.34V805.534H1598.86ZM1438.97 805.534V964.99H1280.45V805.534H1438.97ZM1279.08 805.534V964.99H1120.57V805.534H1279.08ZM1119.2 805.534V964.99H960.681V805.534H1119.2ZM959.311 805.534V964.99H800.8V805.534H959.311ZM799.43 805.534V964.99H640.91V805.534H799.43ZM639.54 805.534V964.99H481.03V805.534H639.54ZM479.66 805.534V964.99H321.14V805.534H479.66ZM319.771 805.534V964.99H161.261V805.534H319.771ZM159.891 805.534V964.99H1.37096V805.534H159.891ZM1.37096 804.164H159.891V644.697H1.37096V804.164ZM161.261 804.164H319.771V644.697H161.261V804.164ZM321.14 804.164H479.66V644.697H321.14V804.164ZM481.03 804.164H639.54V644.697H481.03V804.164ZM640.91 804.164H799.43V644.697H640.91V804.164ZM800.8 804.164H959.311V644.697H800.8V804.164ZM960.681 804.164H1119.2V644.697H960.681V804.164ZM1120.57 804.164H1279.08V644.697H1120.57V804.164ZM1280.45 804.164H1438.97V644.697H1280.45V804.164ZM1440.34 804.164H1598.86V644.697H1440.34V804.164ZM1600.23 804.164H1758.74V644.697H1600.23V804.164ZM1760.11 804.164H1918.63V644.697H1760.11V804.164ZM1918.63 483.871V643.327H1760.11V483.871H1918.63ZM1758.74 483.871V643.327H1600.23V483.871H1758.74ZM1598.86 483.871V643.327H1440.34V483.871H1598.86ZM1438.97 483.871V643.327H1280.45V483.871H1438.97ZM1279.08 483.871V643.327H1120.57V483.871H1279.08ZM1119.2 483.871V643.327H960.681V483.871H1119.2ZM959.311 483.871V643.327H800.8V483.871H959.311ZM799.43 483.871V643.327H640.91V483.871H799.43ZM639.54 483.871V643.327H481.03V483.871H639.54ZM479.66 483.871V643.327H321.14V483.871H479.66ZM319.771 483.871V643.327H161.261V483.871H319.771ZM159.891 483.871V643.327H1.37096V483.871H159.891ZM1.37096 482.501H159.891V323.033H1.37096V482.501ZM161.261 482.501H319.771V323.033H161.261V482.501ZM321.14 482.501H479.66V323.033H321.14V482.501ZM481.03 482.501H639.54V323.033H481.03V482.501ZM640.91 482.501H799.43V323.033H640.91V482.501ZM800.8 482.501H959.311V323.033H800.8V482.501ZM960.681 482.501H1119.2V323.033H960.681V482.501ZM1120.57 482.501H1279.08V323.033H1120.57V482.501ZM1280.45 482.501H1438.97V323.033H1280.45V482.501ZM1440.34 482.501H1598.86V323.033H1440.34V482.501ZM1600.23 482.501H1758.74V323.033H1600.23V482.501ZM1760.11 482.501H1918.63V323.033H1760.11V482.501ZM1918.63 162.205V321.663H1760.11V162.205H1918.63ZM1758.74 162.205V321.663H1600.23V162.205H1758.74ZM1598.86 162.205V321.663H1440.34V162.205H1598.86ZM1438.97 162.205V321.663H1280.45V162.205H1438.97ZM1279.08 162.205V321.663H1120.57V162.205H1279.08ZM1119.2 162.205V321.663H960.681V162.205H1119.2ZM959.311 162.205V321.663H800.8V162.205H959.311ZM799.43 162.205V321.663H640.91V162.205H799.43ZM639.54 162.205V321.663H481.03V162.205H639.54ZM479.66 162.205V321.663H321.14V162.205H479.66ZM319.771 162.205V321.663H161.261V162.205H319.771ZM159.891 162.205V321.663H1.37096V162.205H159.891ZM1.37096 160.835H159.891V1.36967H1.37096V160.835ZM161.261 160.835H319.771V1.36967H161.261V160.835ZM321.14 160.835H479.66V1.36967H321.14V160.835ZM481.03 160.835H639.54V1.36967H481.03V160.835ZM640.91 160.835H799.43V1.36967H640.91V160.835ZM800.8 160.835H959.311V1.36967H800.8V160.835ZM960.681 160.835H1119.2V1.36967H960.681V160.835ZM1120.57 160.835H1279.08V1.36967H1120.57V160.835ZM1280.45 160.835H1438.97V1.36967H1280.45V160.835ZM1440.34 160.835H1598.86V1.36967H1440.34V160.835ZM1600.23 160.835H1758.74V1.36967H1600.23V160.835ZM1760.11 160.835H1918.63V1.36967H1760.11V160.835Z" fill="url(#paint0_linear_284_2829)" fill-opacity="0.16"/>
<defs>
<linearGradient id="paint0_linear_284_2829" x1="1646.69" y1="454.202" x2="477.451" y2="1667.48" gradientUnits="userSpaceOnUse">
<stop stop-color="#ffffff" stop-opacity="1"/>
<stop offset="0.728721" stop-opacity="1"/>
<stop offset="1" stop-color="#ffffff" stop-opacity="1"/>
</linearGradient>
</defs>
</svg>
