<svg width="1920" height="9076" viewBox="0 0 1920 9076" fill="none" xmlns="http://www.w3.org/2000/svg">
<g clip-path="url(#clip0_315_2047)">
<rect width="1920" height="9076" fill="white"/>
<rect width="1920" height="9087" fill="#101010"/>
<path fillRule="evenodd" clipRule="evenodd" d="M0.000976562 0.684834C0.000976562 0.306611 0.307587 0 0.68581 0H1919.32C1919.69 0 1920 0.306611 1920 0.684834C1920 0.696409 1920 0.707916 1920 0.71935V161.485C1920 161.497 1920 161.508 1920 161.52C1920 161.531 1920 161.543 1920 161.554V322.314L1920 322.328L1920 322.348C1920 322.36 1920 322.371 1920 322.383V483.151C1920 483.163 1920 483.174 1920 483.186C1920 483.198 1920 483.209 1920 483.22V643.977C1920 643.989 1920 644 1920 644.012C1920 644.023 1920 644.035 1920 644.046V804.815C1920 804.826 1920 804.838 1920 804.849C1920 804.861 1920 804.872 1920 804.884V965.641C1920 965.652 1920 965.664 1920 965.675L1920 965.687L1920 965.71V1126.48L1920 1126.49L1920 1126.51C1920 1126.52 1920 1126.54 1920 1126.55V1287.31C1920 1287.32 1920 1287.33 1920 1287.34C1920 1287.35 1920 1287.36 1920 1287.38V1448.14L1920 1448.16L1920 1448.18C1920 1448.19 1920 1448.2 1920 1448.21V1608.98C1920 1608.99 1920 1609 1920 1609.01C1920 1609.02 1920 1609.04 1920 1609.05V1769.8C1920 1769.82 1920 1769.83 1920 1769.84L1920 1769.86L1920 1769.87V1930.68C1920 1930.7 1920 1930.72 1920 1930.75C1919.98 1930.92 1919.9 1931.07 1919.78 1931.18C1919.91 1931.31 1920 1931.49 1920 1931.68L1920 1931.7L1920 1931.72V2092.49C1920 2092.5 1920 2092.51 1920 2092.52L1920 2092.53L1920 2092.55V2253.31L1920 2253.33L1920 2253.35C1920 2253.36 1920 2253.37 1920 2253.38V2414.15C1920 2414.16 1920 2414.17 1920 2414.19C1920 2414.2 1920 2414.21 1920 2414.22V2574.98C1920 2574.99 1920 2575 1920 2575.01C1920 2575.02 1920 2575.03 1920 2575.05V2735.81L1920 2735.85L1920 2735.87L1920 2735.88V2896.64L1920 2896.68L1920 2896.69L1920 2896.71V3057.48L1920 3057.49L1920 3057.51L1920 3057.55V3218.31L1920 3218.34L1920 3218.38V3379.14L1920 3379.16L1920 3379.18L1920 3379.21V3539.98L1920 3540.01L1920 3540.05V3700.8L1920 3700.84L1920 3700.86L1920 3700.87V3861.68C1920 3861.7 1920 3861.72 1920 3861.75C1919.98 3861.92 1919.9 3862.07 1919.78 3862.18C1919.84 3862.24 1919.89 3862.31 1919.93 3862.38C1919.97 3862.47 1920 3862.58 1920 3862.68L1920 3862.72V4023.49L1920 4023.52L1920 4023.55V4184.31L1920 4184.33L1920 4184.35L1920 4184.38V4345.15L1920 4345.19L1920 4345.22V4505.98L1920 4506.01L1920 4506.05V4666.81L1920 4666.85L1920 4666.88V4827.64L1920 4827.68L1920 4827.69L1920 4827.71V4988.48L1920 4988.49L1920 4988.51L1920 4988.55V5149.31L1920 5149.34L1920 5149.38V5310.14L1920 5310.16L1920 5310.18L1920 5310.21V5470.98L1920 5471.01L1920 5471.05V5631.8L1920 5631.84L1920 5631.86L1920 5631.87V5792.68L1920 5792.72L1920 5792.75C1919.98 5792.92 1919.9 5793.07 1919.78 5793.18C1919.87 5793.26 1919.94 5793.37 1919.97 5793.49C1919.99 5793.55 1920 5793.62 1920 5793.69L1920 5793.72V5954.49L1920 5954.52L1920 5954.55V6115.31L1920 6115.33L1920 6115.35L1920 6115.38V6276.15L1920 6276.19L1920 6276.22V6436.98L1920 6437.01L1920 6437.05V6597.81L1920 6597.85L1920 6597.88V6758.64L1920 6758.68L1920 6758.69L1920 6758.71V6919.48L1920 6919.49L1920 6919.51L1920 6919.55V7080.31L1920 7080.34L1920 7080.38V7241.14L1920 7241.16L1920 7241.18L1920 7241.21V7401.98L1920 7402.01L1920 7402.05V7562.8L1920 7562.84L1920 7562.86L1920 7562.87V7716.65C1920 7716.66 1920 7716.67 1920 7716.69L1920 7716.72V7723.68V7877.49L1920 7877.52L1920 7877.55V8038.31L1920 8038.33L1920 8038.35L1920 8038.38V8199.15L1920 8199.19L1920 8199.22V8359.98L1920 8360.01L1920 8360.05V8520.81L1920 8520.85L1920 8520.88V8681.64L1920 8681.67L1920 8681.69L1920 8681.71V8842.48L1920 8842.49L1920 8842.51L1920 8842.55V9003.31L1920 9003.34L1920 9003.38V9164.14L1920 9164.16L1920 9164.18L1920 9164.21V9324.98L1920 9325.01L1920 9325.05V9485.8L1920 9485.84L1920 9485.86L1920 9485.87V9646.68C1920 9646.7 1920 9646.72 1920 9646.75C1919.97 9646.98 1919.83 9647.18 1919.63 9647.28C1919.54 9647.33 1919.43 9647.36 1919.31 9647.36H0.684834C0.30661 9647.36 0 9647.06 0 9646.68L0.00129294 9646.63V9485.86L0.000976562 9485.84L0.00129294 9485.82V9325.03L0.000976562 9325.01L0.00129294 9324.99V9164.2L0.000976562 9164.18L0.00129294 9164.16V9003.36L0.000976562 9003.34L0.00129294 9003.32V8842.53L0.000976562 8842.51L0.00129294 8842.49V8681.7L0.000976562 8681.67L0.00129294 8681.65V8520.87L0.000976562 8520.85L0.00129294 8520.83V8360.03L0.000976562 8360.01L0.00129294 8359.99V8199.21L0.000976562 8199.19L0.00129294 8199.17V8038.37L0.000976562 8038.35L0.00129294 8038.33V7877.54L0.000976562 7877.52L0.00129294 7877.5V7723.72C0.00043517 7723.71 0 7723.69 0 7723.68L0.00129294 7723.63V7716.71L0.000976562 7716.69C0.000976562 7716.68 0.00108253 7716.67 0.00129294 7716.66V7562.86L0.000976562 7562.84L0.00129294 7562.82V7402.03L0.000976562 7402.01L0.00129294 7401.99V7241.2L0.000976562 7241.18L0.00129294 7241.16V7080.36L0.000976562 7080.34L0.00129294 7080.32V6919.53L0.000976562 6919.51L0.00129294 6919.49V6758.7L0.000976562 6758.68L0.00129294 6758.65V6597.87L0.000976562 6597.85L0.00129294 6597.83V6437.03L0.000976562 6437.01L0.00129294 6436.99V6276.21L0.000976562 6276.19L0.00129294 6276.17V6115.37L0.000976562 6115.35L0.00129294 6115.33V5954.54L0.000976562 5954.52L0.00129294 5954.5V5793.71L0.000976562 5793.69C0.000976562 5793.49 0.0858418 5793.31 0.22135 5793.18C0.085272 5793.06 0 5792.88 0 5792.68L0.00129294 5792.63V5631.86L0.000976562 5631.84L0.00129294 5631.82V5471.03L0.000976562 5471.01L0.00129294 5470.99V5310.2L0.000976562 5310.18L0.00129294 5310.16V5149.36L0.000976562 5149.34L0.00129294 5149.32V4988.53L0.000976562 4988.51L0.00129294 4988.49V4827.7L0.000976562 4827.68L0.00129294 4827.65V4666.87L0.000976562 4666.85L0.00129294 4666.83V4506.03L0.000976562 4506.01L0.00129294 4505.99V4345.21L0.000976562 4345.19L0.00129294 4345.17V4184.37L0.000976562 4184.35L0.00129294 4184.33V4023.54L0.000976562 4023.52L0.00129294 4023.5V3862.71L0.000976562 3862.68C0.000976562 3862.49 0.085834 3862.31 0.221334 3862.18C0.0852653 3862.06 0 3861.88 0 3861.68L0.00129294 3861.63V3700.86L0.000976562 3700.84L0.00129294 3700.82V3540.03L0.000976562 3540.01L0.00129294 3539.99V3379.2L0.000976562 3379.18L0.00129294 3379.16V3218.36L0.000976562 3218.34L0.00129294 3218.32V3057.53L0.000976562 3057.51L0.00129294 3057.49V2896.7L0.000976562 2896.68L0.00129294 2896.65V2735.87L0.000976562 2735.85L0.00129294 2735.83V2575.03L0.000976562 2575.01L0.00129294 2574.99V2414.21L0.000976562 2414.19L0.00129294 2414.17V2253.37L0.000976562 2253.35L0.00129294 2253.33V2092.54L0.000976562 2092.52L0.00129294 2092.5V1931.71L0.000976562 1931.68C0.000976562 1931.49 0.0858576 1931.31 0.221388 1931.18C0.0852879 1931.06 0 1930.88 0 1930.68C0 1930.66 0.00043517 1930.65 0.00129294 1930.63V1769.86L0.000976562 1769.84L0.00129294 1769.82V1609.03L0.000976562 1609.01L0.00129294 1608.99V1448.2L0.000976562 1448.18L0.00129294 1448.16V1287.36L0.000976562 1287.34L0.00129294 1287.32V1126.53L0.000976562 1126.51L0.00129294 1126.49V965.696L0.000976562 965.675L0.00129294 965.654V804.87C0.00108253 804.863 0.000976562 804.856 0.000976562 804.849C0.000976562 804.842 0.00108253 804.835 0.00129294 804.828V644.033C0.00108253 644.026 0.000976562 644.019 0.000976562 644.012C0.000976562 644.005 0.00108253 643.998 0.00129294 643.991V483.207C0.00108253 483.2 0.000976562 483.193 0.000976562 483.186C0.000976562 483.179 0.00108253 483.172 0.00129294 483.165V322.369C0.00108253 322.362 0.000976562 322.355 0.000976562 322.348C0.000976562 322.341 0.00108253 322.334 0.00129294 322.327V161.541C0.00108253 161.534 0.000976562 161.527 0.000976562 161.52C0.000976562 161.513 0.00108253 161.506 0.00129294 161.499V0.705852C0.00108253 0.698871 0.000976562 0.691865 0.000976562 0.684834ZM1.37096 7717.37V7722.18H159.891V7717.37H1.37096ZM159.891 7716H1.37096V7563.52H159.891V7716ZM161.261 7717.37V7722.18H319.771V7717.37H161.261ZM319.771 7716H161.261V7563.52H319.771V7716ZM321.14 7717.37V7722.18H479.66V7717.37H321.14ZM479.66 7716H321.14V7563.52H479.66V7716ZM481.03 7717.37V7722.18H639.54V7717.37H481.03ZM639.54 7716H481.03V7563.52H639.54V7716ZM640.91 7717.37V7722.18H799.43V7717.37H640.91ZM799.43 7716H640.91V7563.52H799.43V7716ZM800.8 7717.37V7722.18H959.311V7717.37H800.8ZM959.311 7716H800.8V7563.52H959.311V7716ZM960.681 7717.37V7722.18H1119.2V7717.37H960.681ZM1119.2 7716H960.681V7563.52H1119.2V7716ZM1120.57 7717.37V7722.18H1279.08V7717.37H1120.57ZM1279.08 7716H1120.57V7563.52H1279.08V7716ZM1280.45 7717.37V7722.18H1438.97V7717.37H1280.45ZM1438.97 7716H1280.45V7563.52H1438.97V7716ZM1440.34 7717.37V7722.18H1598.86V7717.37H1440.34ZM1598.86 7716H1440.34V7563.52H1598.86V7716ZM1600.23 7717.37V7722.18H1758.74V7717.37H1600.23ZM1758.74 7716H1600.23V7563.52H1758.74V7716ZM1760.11 7717.37V7722.18H1918.63V7717.37H1760.11ZM1918.63 7716H1760.11V7563.52H1918.63V7716ZM1918.63 7724.36H1760.11V7876.83H1918.63V7724.36ZM1758.74 7724.36H1600.23V7876.83H1758.74V7724.36ZM1598.86 7724.36H1440.34V7876.83H1598.86V7724.36ZM1438.97 7724.36H1280.45V7876.83H1438.97V7724.36ZM1279.08 7724.36H1120.57V7876.83H1279.08V7724.36ZM1119.2 7724.36H960.681V7876.83H1119.2V7724.36ZM959.311 7724.36H800.8V7876.83H959.311V7724.36ZM799.43 7724.36H640.91V7876.83H799.43V7724.36ZM639.54 7724.36H481.03V7876.83H639.54V7724.36ZM479.66 7724.36H321.14V7876.83H479.66V7724.36ZM319.771 7724.36H161.261V7876.83H319.771V7724.36ZM159.891 7724.36H1.37096V7876.83H159.891V7724.36ZM1918.63 1770.52V1929.18H1760.11V1770.52H1918.63ZM1758.74 1770.52V1929.18H1600.23V1770.52H1758.74ZM1598.86 1770.52V1929.18H1440.34V1770.52H1598.86ZM1438.97 1770.52V1929.18H1280.45V1770.52H1438.97ZM1279.08 1770.52V1929.18H1120.57V1770.52H1279.08ZM1119.2 1770.52V1929.18H960.681V1770.52H1119.2ZM959.311 1770.52V1929.18H800.8V1770.52H959.311ZM799.43 1770.52V1929.18H640.91V1770.52H799.43ZM639.54 1770.52V1929.18H481.03V1770.52H639.54ZM479.66 1770.52V1929.18H321.14V1770.52H479.66ZM319.771 1770.52V1929.18H161.261V1770.52H319.771ZM159.891 1770.52V1929.18H1.37096V1770.52H159.891ZM1.37096 1769.15H159.891V1609.7H1.37096V1769.15ZM161.261 1769.15H319.771V1609.7H161.261V1769.15ZM321.14 1769.15H479.66V1609.7H321.14V1769.15ZM481.03 1769.15H639.54V1609.7H481.03V1769.15ZM640.91 1769.15H799.43V1609.7H640.91V1769.15ZM800.8 1769.15H959.311V1609.7H800.8V1769.15ZM960.681 1769.15H1119.2V1609.7H960.681V1769.15ZM1120.57 1769.15H1279.08V1609.7H1120.57V1769.15ZM1280.45 1769.15H1438.97V1609.7H1280.45V1769.15ZM1440.34 1769.15H1598.86V1609.7H1440.34V1769.15ZM1600.23 1769.15H1758.74V1609.7H1600.23V1769.15ZM1760.11 1769.15H1918.63V1609.7H1760.11V1769.15ZM1918.63 1448.86V1608.33H1760.11V1448.86H1918.63ZM1758.74 1448.86V1608.33H1600.23V1448.86H1758.74ZM1598.86 1448.86V1608.33H1440.34V1448.86H1598.86ZM1438.97 1448.86V1608.33H1280.45V1448.86H1438.97ZM1279.08 1448.86V1608.33H1120.57V1448.86H1279.08ZM1119.2 1448.86V1608.33H960.681V1448.86H1119.2ZM959.311 1448.86V1608.33H800.8V1448.86H959.311ZM799.43 1448.86V1608.33H640.91V1448.86H799.43ZM639.54 1448.86V1608.33H481.03V1448.86H639.54ZM479.66 1448.86V1608.33H321.14V1448.86H479.66ZM319.771 1448.86V1608.33H161.261V1448.86H319.771ZM159.891 1448.86V1608.33H1.37096V1448.86H159.891ZM1.37096 1447.49H159.891V1288.03H1.37096V1447.49ZM161.261 1447.49H319.771V1288.03H161.261V1447.49ZM321.14 1447.49H479.66V1288.03H321.14V1447.49ZM481.03 1447.49H639.54V1288.03H481.03V1447.49ZM640.91 1447.49H799.43V1288.03H640.91V1447.49ZM800.8 1447.49H959.311V1288.03H800.8V1447.49ZM960.681 1447.49H1119.2V1288.03H960.681V1447.49ZM1120.57 1447.49H1279.08V1288.03H1120.57V1447.49ZM1280.45 1447.49H1438.97V1288.03H1280.45V1447.49ZM1440.34 1447.49H1598.86V1288.03H1440.34V1447.49ZM1600.23 1447.49H1758.74V1288.03H1600.23V1447.49ZM1760.11 1447.49H1918.63V1288.03H1760.11V1447.49ZM1918.63 1127.2V1286.66H1760.11V1127.2H1918.63ZM1758.74 1127.2V1286.66H1600.23V1127.2H1758.74ZM1598.86 1127.2V1286.66H1440.34V1127.2H1598.86ZM1438.97 1127.2V1286.66H1280.45V1127.2H1438.97ZM1279.08 1127.2V1286.66H1120.57V1127.2H1279.08ZM1119.2 1127.2V1286.66H960.681V1127.2H1119.2ZM959.311 1127.2V1286.66H800.8V1127.2H959.311ZM799.43 1127.2V1286.66H640.91V1127.2H799.43ZM639.54 1127.2V1286.66H481.03V1127.2H639.54ZM479.66 1127.2V1286.66H321.14V1127.2H479.66ZM319.771 1127.2V1286.66H161.261V1127.2H319.771ZM159.891 1127.2V1286.66H1.37096V1127.2H159.891ZM1.37096 1125.83H159.891V966.36H1.37096V1125.83ZM161.261 1125.83H319.771V966.36H161.261V1125.83ZM321.14 1125.83H479.66V966.36H321.14V1125.83ZM481.03 1125.83H639.54V966.36H481.03V1125.83ZM640.91 1125.83H799.43V966.36H640.91V1125.83ZM800.8 1125.83H959.311V966.36H800.8V1125.83ZM960.681 1125.83H1119.2V966.36H960.681V1125.83ZM1120.57 1125.83H1279.08V966.36H1120.57V1125.83ZM1280.45 1125.83H1438.97V966.36H1280.45V1125.83ZM1440.34 1125.83H1598.86V966.36H1440.34V1125.83ZM1600.23 1125.83H1758.74V966.36H1600.23V1125.83ZM1760.11 1125.83H1918.63V966.36H1760.11V1125.83ZM1918.63 805.534V964.99H1760.11V805.534H1918.63ZM1758.74 805.534V964.99H1600.23V805.534H1758.74ZM1598.86 805.534V964.99H1440.34V805.534H1598.86ZM1438.97 805.534V964.99H1280.45V805.534H1438.97ZM1279.08 805.534V964.99H1120.57V805.534H1279.08ZM1119.2 805.534V964.99H960.681V805.534H1119.2ZM959.311 805.534V964.99H800.8V805.534H959.311ZM799.43 805.534V964.99H640.91V805.534H799.43ZM639.54 805.534V964.99H481.03V805.534H639.54ZM479.66 805.534V964.99H321.14V805.534H479.66ZM319.771 805.534V964.99H161.261V805.534H319.771ZM159.891 805.534V964.99H1.37096V805.534H159.891ZM1.37096 804.164H159.891V644.697H1.37096V804.164ZM161.261 804.164H319.771V644.697H161.261V804.164ZM321.14 804.164H479.66V644.697H321.14V804.164ZM481.03 804.164H639.54V644.697H481.03V804.164ZM640.91 804.164H799.43V644.697H640.91V804.164ZM800.8 804.164H959.311V644.697H800.8V804.164ZM960.681 804.164H1119.2V644.697H960.681V804.164ZM1120.57 804.164H1279.08V644.697H1120.57V804.164ZM1280.45 804.164H1438.97V644.697H1280.45V804.164ZM1440.34 804.164H1598.86V644.697H1440.34V804.164ZM1600.23 804.164H1758.74V644.697H1600.23V804.164ZM1760.11 804.164H1918.63V644.697H1760.11V804.164ZM1918.63 483.871V643.327H1760.11V483.871H1918.63ZM1758.74 483.871V643.327H1600.23V483.871H1758.74ZM1598.86 483.871V643.327H1440.34V483.871H1598.86ZM1438.97 483.871V643.327H1280.45V483.871H1438.97ZM1279.08 483.871V643.327H1120.57V483.871H1279.08ZM1119.2 483.871V643.327H960.681V483.871H1119.2ZM959.311 483.871V643.327H800.8V483.871H959.311ZM799.43 483.871V643.327H640.91V483.871H799.43ZM639.54 483.871V643.327H481.03V483.871H639.54ZM479.66 483.871V643.327H321.14V483.871H479.66ZM319.771 483.871V643.327H161.261V483.871H319.771ZM159.891 483.871V643.327H1.37096V483.871H159.891ZM1.37096 482.501H159.891V323.033H1.37096V482.501ZM161.261 482.501H319.771V323.033H161.261V482.501ZM321.14 482.501H479.66V323.033H321.14V482.501ZM481.03 482.501H639.54V323.033H481.03V482.501ZM640.91 482.501H799.43V323.033H640.91V482.501ZM800.8 482.501H959.311V323.033H800.8V482.501ZM960.681 482.501H1119.2V323.033H960.681V482.501ZM1120.57 482.501H1279.08V323.033H1120.57V482.501ZM1280.45 482.501H1438.97V323.033H1280.45V482.501ZM1440.34 482.501H1598.86V323.033H1440.34V482.501ZM1600.23 482.501H1758.74V323.033H1600.23V482.501ZM1760.11 482.501H1918.63V323.033H1760.11V482.501ZM1918.63 162.205V321.663H1760.11V162.205H1918.63ZM1758.74 162.205V321.663H1600.23V162.205H1758.74ZM1598.86 162.205V321.663H1440.34V162.205H1598.86ZM1438.97 162.205V321.663H1280.45V162.205H1438.97ZM1279.08 162.205V321.663H1120.57V162.205H1279.08ZM1119.2 162.205V321.663H960.681V162.205H1119.2ZM959.311 162.205V321.663H800.8V162.205H959.311ZM799.43 162.205V321.663H640.91V162.205H799.43ZM639.54 162.205V321.663H481.03V162.205H639.54ZM479.66 162.205V321.663H321.14V162.205H479.66ZM319.771 162.205V321.663H161.261V162.205H319.771ZM159.891 162.205V321.663H1.37096V162.205H159.891ZM1.37096 160.835H159.891V1.36967H1.37096V160.835ZM161.261 160.835H319.771V1.36967H161.261V160.835ZM321.14 160.835H479.66V1.36967H321.14V160.835ZM481.03 160.835H639.54V1.36967H481.03V160.835ZM640.91 160.835H799.43V1.36967H640.91V160.835ZM800.8 160.835H959.311V1.36967H800.8V160.835ZM960.681 160.835H1119.2V1.36967H960.681V160.835ZM1120.57 160.835H1279.08V1.36967H1120.57V160.835ZM1280.45 160.835H1438.97V1.36967H1280.45V160.835ZM1440.34 160.835H1598.86V1.36967H1440.34V160.835ZM1600.23 160.835H1758.74V1.36967H1600.23V160.835ZM1760.11 160.835H1918.63V1.36967H1760.11V160.835ZM1918.63 3701.52V3860.18H1760.11V3701.52H1918.63ZM1758.74 3701.52V3860.18H1600.23V3701.52H1758.74ZM1598.86 3701.52V3860.18H1440.34V3701.52H1598.86ZM1438.97 3701.52V3860.18H1280.45V3701.52H1438.97ZM1279.08 3701.52V3860.18H1120.57V3701.52H1279.08ZM1119.2 3701.52V3860.18H960.681V3701.52H1119.2ZM959.311 3701.52V3860.18H800.8V3701.52H959.311ZM799.43 3701.52V3860.18H640.91V3701.52H799.43ZM639.54 3701.52V3860.18H481.03V3701.52H639.54ZM479.66 3701.52V3860.18H321.14V3701.52H479.66ZM319.771 3701.52V3860.18H161.261V3701.52H319.771ZM159.891 3701.52V3860.18H1.37096V3701.52H159.891ZM1.37096 3700.15H159.891V3540.7H1.37096V3700.15ZM161.261 3700.15H319.771V3540.7H161.261V3700.15ZM321.14 3700.15H479.66V3540.7H321.14V3700.15ZM481.03 3700.15H639.54V3540.7H481.03V3700.15ZM640.91 3700.15H799.43V3540.7H640.91V3700.15ZM800.8 3700.15H959.311V3540.7H800.8V3700.15ZM960.681 3700.15H1119.2V3540.7H960.681V3700.15ZM1120.57 3700.15H1279.08V3540.7H1120.57V3700.15ZM1280.45 3700.15H1438.97V3540.7H1280.45V3700.15ZM1440.34 3700.15H1598.86V3540.7H1440.34V3700.15ZM1600.23 3700.15H1758.74V3540.7H1600.23V3700.15ZM1760.11 3700.15H1918.63V3540.7H1760.11V3700.15ZM1918.63 3379.86V3539.33H1760.11V3379.86H1918.63ZM1758.74 3379.86V3539.33H1600.23V3379.86H1758.74ZM1598.86 3379.86V3539.33H1440.34V3379.86H1598.86ZM1438.97 3379.86V3539.33H1280.45V3379.86H1438.97ZM1279.08 3379.86V3539.33H1120.57V3379.86H1279.08ZM1119.2 3379.86V3539.33H960.681V3379.86H1119.2ZM959.311 3379.86V3539.33H800.8V3379.86H959.311ZM799.43 3379.86V3539.33H640.91V3379.86H799.43ZM639.54 3379.86V3539.33H481.03V3379.86H639.54ZM479.66 3379.86V3539.33H321.14V3379.86H479.66ZM319.771 3379.86V3539.33H161.261V3379.86H319.771ZM159.891 3379.86V3539.33H1.37096V3379.86H159.891ZM1.37096 3378.49H159.891V3219.03H1.37096V3378.49ZM161.261 3378.49H319.771V3219.03H161.261V3378.49ZM321.14 3378.49H479.66V3219.03H321.14V3378.49ZM481.03 3378.49H639.54V3219.03H481.03V3378.49ZM640.91 3378.49H799.43V3219.03H640.91V3378.49ZM800.8 3378.49H959.311V3219.03H800.8V3378.49ZM960.681 3378.49H1119.2V3219.03H960.681V3378.49ZM1120.57 3378.49H1279.08V3219.03H1120.57V3378.49ZM1280.45 3378.49H1438.97V3219.03H1280.45V3378.49ZM1440.34 3378.49H1598.86V3219.03H1440.34V3378.49ZM1600.23 3378.49H1758.74V3219.03H1600.23V3378.49ZM1760.11 3378.49H1918.63V3219.03H1760.11V3378.49ZM1918.63 3058.2V3217.66H1760.11V3058.2H1918.63ZM1758.74 3058.2V3217.66H1600.23V3058.2H1758.74ZM1598.86 3058.2V3217.66H1440.34V3058.2H1598.86ZM1438.97 3058.2V3217.66H1280.45V3058.2H1438.97ZM1279.08 3058.2V3217.66H1120.57V3058.2H1279.08ZM1119.2 3058.2V3217.66H960.681V3058.2H1119.2ZM959.311 3058.2V3217.66H800.8V3058.2H959.311ZM799.43 3058.2V3217.66H640.91V3058.2H799.43ZM639.54 3058.2V3217.66H481.03V3058.2H639.54ZM479.66 3058.2V3217.66H321.14V3058.2H479.66ZM319.771 3058.2V3217.66H161.261V3058.2H319.771ZM159.891 3058.2V3217.66H1.37096V3058.2H159.891ZM1.37096 3056.83H159.891V2897.36H1.37096V3056.83ZM161.261 3056.83H319.771V2897.36H161.261V3056.83ZM321.14 3056.83H479.66V2897.36H321.14V3056.83ZM481.03 3056.83H639.54V2897.36H481.03V3056.83ZM640.91 3056.83H799.43V2897.36H640.91V3056.83ZM800.8 3056.83H959.311V2897.36H800.8V3056.83ZM960.681 3056.83H1119.2V2897.36H960.681V3056.83ZM1120.57 3056.83H1279.08V2897.36H1120.57V3056.83ZM1280.45 3056.83H1438.97V2897.36H1280.45V3056.83ZM1440.34 3056.83H1598.86V2897.36H1440.34V3056.83ZM1600.23 3056.83H1758.74V2897.36H1600.23V3056.83ZM1760.11 3056.83H1918.63V2897.36H1760.11V3056.83ZM1918.63 2736.53V2895.99H1760.11V2736.53H1918.63ZM1758.74 2736.53V2895.99H1600.23V2736.53H1758.74ZM1598.86 2736.53V2895.99H1440.34V2736.53H1598.86ZM1438.97 2736.53V2895.99H1280.45V2736.53H1438.97ZM1279.08 2736.53V2895.99H1120.57V2736.53H1279.08ZM1119.2 2736.53V2895.99H960.681V2736.53H1119.2ZM959.311 2736.53V2895.99H800.8V2736.53H959.311ZM799.43 2736.53V2895.99H640.91V2736.53H799.43ZM639.54 2736.53V2895.99H481.03V2736.53H639.54ZM479.66 2736.53V2895.99H321.14V2736.53H479.66ZM319.771 2736.53V2895.99H161.261V2736.53H319.771ZM159.891 2736.53V2895.99H1.37096V2736.53H159.891ZM1.37096 2735.16H159.891V2575.7H1.37096V2735.16ZM161.261 2735.16H319.771V2575.7H161.261V2735.16ZM321.14 2735.16H479.66V2575.7H321.14V2735.16ZM481.03 2735.16H639.54V2575.7H481.03V2735.16ZM640.91 2735.16H799.43V2575.7H640.91V2735.16ZM800.8 2735.16H959.311V2575.7H800.8V2735.16ZM960.681 2735.16H1119.2V2575.7H960.681V2735.16ZM1120.57 2735.16H1279.08V2575.7H1120.57V2735.16ZM1280.45 2735.16H1438.97V2575.7H1280.45V2735.16ZM1440.34 2735.16H1598.86V2575.7H1440.34V2735.16ZM1600.23 2735.16H1758.74V2575.7H1600.23V2735.16ZM1760.11 2735.16H1918.63V2575.7H1760.11V2735.16ZM1918.63 2414.87V2574.33H1760.11V2414.87H1918.63ZM1758.74 2414.87V2574.33H1600.23V2414.87H1758.74ZM1598.86 2414.87V2574.33H1440.34V2414.87H1598.86ZM1438.97 2414.87V2574.33H1280.45V2414.87H1438.97ZM1279.08 2414.87V2574.33H1120.57V2414.87H1279.08ZM1119.2 2414.87V2574.33H960.681V2414.87H1119.2ZM959.311 2414.87V2574.33H800.8V2414.87H959.311ZM799.43 2414.87V2574.33H640.91V2414.87H799.43ZM639.54 2414.87V2574.33H481.03V2414.87H639.54ZM479.66 2414.87V2574.33H321.14V2414.87H479.66ZM319.771 2414.87V2574.33H161.261V2414.87H319.771ZM159.891 2414.87V2574.33H1.37096V2414.87H159.891ZM1.37096 2413.5H159.891V2254.03H1.37096V2413.5ZM161.261 2413.5H319.771V2254.03H161.261V2413.5ZM321.14 2413.5H479.66V2254.03H321.14V2413.5ZM481.03 2413.5H639.54V2254.03H481.03V2413.5ZM640.91 2413.5H799.43V2254.03H640.91V2413.5ZM800.8 2413.5H959.311V2254.03H800.8V2413.5ZM960.681 2413.5H1119.2V2254.03H960.681V2413.5ZM1120.57 2413.5H1279.08V2254.03H1120.57V2413.5ZM1280.45 2413.5H1438.97V2254.03H1280.45V2413.5ZM1440.34 2413.5H1598.86V2254.03H1440.34V2413.5ZM1600.23 2413.5H1758.74V2254.03H1600.23V2413.5ZM1760.11 2413.5H1918.63V2254.03H1760.11V2413.5ZM1918.63 2093.2V2252.66H1760.11V2093.2H1918.63ZM1758.74 2093.2V2252.66H1600.23V2093.2H1758.74ZM1598.86 2093.2V2252.66H1440.34V2093.2H1598.86ZM1438.97 2093.2V2252.66H1280.45V2093.2H1438.97ZM1279.08 2093.2V2252.66H1120.57V2093.2H1279.08ZM1119.2 2093.2V2252.66H960.681V2093.2H1119.2ZM959.311 2093.2V2252.66H800.8V2093.2H959.311ZM799.43 2093.2V2252.66H640.91V2093.2H799.43ZM639.54 2093.2V2252.66H481.03V2093.2H639.54ZM479.66 2093.2V2252.66H321.14V2093.2H479.66ZM319.771 2093.2V2252.66H161.261V2093.2H319.771ZM159.891 2093.2V2252.66H1.37096V2093.2H159.891ZM1.37096 2091.83H159.891V1932.37H1.37096V2091.83ZM161.261 2091.83H319.771V1932.37H161.261V2091.83ZM321.14 2091.83H479.66V1932.37H321.14V2091.83ZM481.03 2091.83H639.54V1932.37H481.03V2091.83ZM640.91 2091.83H799.43V1932.37H640.91V2091.83ZM800.8 2091.83H959.311V1932.37H800.8V2091.83ZM960.681 2091.83H1119.2V1932.37H960.681V2091.83ZM1120.57 2091.83H1279.08V1932.37H1120.57V2091.83ZM1280.45 2091.83H1438.97V1932.37H1280.45V2091.83ZM1440.34 2091.83H1598.86V1932.37H1440.34V2091.83ZM1600.23 2091.83H1758.74V1932.37H1600.23V2091.83ZM1760.11 2091.83H1918.63V1932.37H1760.11V2091.83ZM1918.63 5791.18V5632.52H1760.11V5791.18H1918.63ZM1758.74 5791.18V5632.52H1600.23V5791.18H1758.74ZM1598.86 5791.18V5632.52H1440.34V5791.18H1598.86ZM1438.97 5791.18V5632.52H1280.45V5791.18H1438.97ZM1279.08 5791.18V5632.52H1120.57V5791.18H1279.08ZM1119.2 5791.18V5632.52H960.681V5791.18H1119.2ZM959.311 5791.18V5632.52H800.8V5791.18H959.311ZM799.43 5791.18V5632.52H640.91V5791.18H799.43ZM639.54 5791.18V5632.52H481.03V5791.18H639.54ZM479.66 5791.18V5632.52H321.14V5791.18H479.66ZM319.771 5791.18V5632.52H161.261V5791.18H319.771ZM159.891 5791.18V5632.52H1.37096V5791.18H159.891ZM159.891 5631.15H1.37096V5471.7H159.891V5631.15ZM319.771 5631.15H161.261V5471.7H319.771V5631.15ZM479.66 5631.15H321.14V5471.7H479.66V5631.15ZM639.54 5631.15H481.03V5471.7H639.54V5631.15ZM799.43 5631.15H640.91V5471.7H799.43V5631.15ZM959.311 5631.15H800.8V5471.7H959.311V5631.15ZM1119.2 5631.15H960.681V5471.7H1119.2V5631.15ZM1279.08 5631.15H1120.57V5471.7H1279.08V5631.15ZM1438.97 5631.15H1280.45V5471.7H1438.97V5631.15ZM1598.86 5631.15H1440.34V5471.7H1598.86V5631.15ZM1758.74 5631.15H1600.23V5471.7H1758.74V5631.15ZM1918.63 5631.15H1760.11V5471.7H1918.63V5631.15ZM1918.63 5470.33V5310.86H1760.11V5470.33H1918.63ZM1758.74 5470.33V5310.86H1600.23V5470.33H1758.74ZM1598.86 5470.33V5310.86H1440.34V5470.33H1598.86ZM1438.97 5470.33V5310.86H1280.45V5470.33H1438.97ZM1279.08 5470.33V5310.86H1120.57V5470.33H1279.08ZM1119.2 5470.33V5310.86H960.681V5470.33H1119.2ZM959.311 5470.33V5310.86H800.8V5470.33H959.311ZM799.43 5470.33V5310.86H640.91V5470.33H799.43ZM639.54 5470.33V5310.86H481.03V5470.33H639.54ZM479.66 5470.33V5310.86H321.14V5470.33H479.66ZM319.771 5470.33V5310.86H161.261V5470.33H319.771ZM159.891 5470.33V5310.86H1.37096V5470.33H159.891ZM159.891 5309.49H1.37096V5150.03H159.891V5309.49ZM319.771 5309.49H161.261V5150.03H319.771V5309.49ZM479.66 5309.49H321.14V5150.03H479.66V5309.49ZM639.54 5309.49H481.03V5150.03H639.54V5309.49ZM799.43 5309.49H640.91V5150.03H799.43V5309.49ZM959.311 5309.49H800.8V5150.03H959.311V5309.49ZM1119.2 5309.49H960.681V5150.03H1119.2V5309.49ZM1279.08 5309.49H1120.57V5150.03H1279.08V5309.49ZM1438.97 5309.49H1280.45V5150.03H1438.97V5309.49ZM1598.86 5309.49H1440.34V5150.03H1598.86V5309.49ZM1758.74 5309.49H1600.23V5150.03H1758.74V5309.49ZM1918.63 5309.49H1760.11V5150.03H1918.63V5309.49ZM1918.63 5148.66V4989.2H1760.11V5148.66H1918.63ZM1758.74 5148.66V4989.2H1600.23V5148.66H1758.74ZM1598.86 5148.66V4989.2H1440.34V5148.66H1598.86ZM1438.97 5148.66V4989.2H1280.45V5148.66H1438.97ZM1279.08 5148.66V4989.2H1120.57V5148.66H1279.08ZM1119.2 5148.66V4989.2H960.681V5148.66H1119.2ZM959.311 5148.66V4989.2H800.8V5148.66H959.311ZM799.43 5148.66V4989.2H640.91V5148.66H799.43ZM639.54 5148.66V4989.2H481.03V5148.66H639.54ZM479.66 5148.66V4989.2H321.14V5148.66H479.66ZM319.771 5148.66V4989.2H161.261V5148.66H319.771ZM159.891 5148.66V4989.2H1.37096V5148.66H159.891ZM159.891 4987.83H1.37096V4828.36H159.891V4987.83ZM319.771 4987.83H161.261V4828.36H319.771V4987.83ZM479.66 4987.83H321.14V4828.36H479.66V4987.83ZM639.54 4987.83H481.03V4828.36H639.54V4987.83ZM799.43 4987.83H640.91V4828.36H799.43V4987.83ZM959.311 4987.83H800.8V4828.36H959.311V4987.83ZM1119.2 4987.83H960.681V4828.36H1119.2V4987.83ZM1279.08 4987.83H1120.57V4828.36H1279.08V4987.83ZM1438.97 4987.83H1280.45V4828.36H1438.97V4987.83ZM1598.86 4987.83H1440.34V4828.36H1598.86V4987.83ZM1758.74 4987.83H1600.23V4828.36H1758.74V4987.83ZM1918.63 4987.83H1760.11V4828.36H1918.63V4987.83ZM1918.63 4826.99V4667.53H1760.11V4826.99H1918.63ZM1758.74 4826.99V4667.53H1600.23V4826.99H1758.74ZM1598.86 4826.99V4667.53H1440.34V4826.99H1598.86ZM1438.97 4826.99V4667.53H1280.45V4826.99H1438.97ZM1279.08 4826.99V4667.53H1120.57V4826.99H1279.08ZM1119.2 4826.99V4667.53H960.681V4826.99H1119.2ZM959.311 4826.99V4667.53H800.8V4826.99H959.311ZM799.43 4826.99V4667.53H640.91V4826.99H799.43ZM639.54 4826.99V4667.53H481.03V4826.99H639.54ZM479.66 4826.99V4667.53H321.14V4826.99H479.66ZM319.771 4826.99V4667.53H161.261V4826.99H319.771ZM159.891 4826.99V4667.53H1.37096V4826.99H159.891ZM159.891 4666.16H1.37096V4506.7H159.891V4666.16ZM319.771 4666.16H161.261V4506.7H319.771V4666.16ZM479.66 4666.16H321.14V4506.7H479.66V4666.16ZM639.54 4666.16H481.03V4506.7H639.54V4666.16ZM799.43 4666.16H640.91V4506.7H799.43V4666.16ZM959.311 4666.16H800.8V4506.7H959.311V4666.16ZM1119.2 4666.16H960.681V4506.7H1119.2V4666.16ZM1279.08 4666.16H1120.57V4506.7H1279.08V4666.16ZM1438.97 4666.16H1280.45V4506.7H1438.97V4666.16ZM1598.86 4666.16H1440.34V4506.7H1598.86V4666.16ZM1758.74 4666.16H1600.23V4506.7H1758.74V4666.16ZM1918.63 4666.16H1760.11V4506.7H1918.63V4666.16ZM1918.63 4505.33V4345.87H1760.11V4505.33H1918.63ZM1758.74 4505.33V4345.87H1600.23V4505.33H1758.74ZM1598.86 4505.33V4345.87H1440.34V4505.33H1598.86ZM1438.97 4505.33V4345.87H1280.45V4505.33H1438.97ZM1279.08 4505.33V4345.87H1120.57V4505.33H1279.08ZM1119.2 4505.33V4345.87H960.681V4505.33H1119.2ZM959.311 4505.33V4345.87H800.8V4505.33H959.311ZM799.43 4505.33V4345.87H640.91V4505.33H799.43ZM639.54 4505.33V4345.87H481.03V4505.33H639.54ZM479.66 4505.33V4345.87H321.14V4505.33H479.66ZM319.771 4505.33V4345.87H161.261V4505.33H319.771ZM159.891 4505.33V4345.87H1.37096V4505.33H159.891ZM159.891 4344.5H1.37096V4185.03H159.891V4344.5ZM319.771 4344.5H161.261V4185.03H319.771V4344.5ZM479.66 4344.5H321.14V4185.03H479.66V4344.5ZM639.54 4344.5H481.03V4185.03H639.54V4344.5ZM799.43 4344.5H640.91V4185.03H799.43V4344.5ZM959.311 4344.5H800.8V4185.03H959.311V4344.5ZM1119.2 4344.5H960.681V4185.03H1119.2V4344.5ZM1279.08 4344.5H1120.57V4185.03H1279.08V4344.5ZM1438.97 4344.5H1280.45V4185.03H1438.97V4344.5ZM1598.86 4344.5H1440.34V4185.03H1598.86V4344.5ZM1758.74 4344.5H1600.23V4185.03H1758.74V4344.5ZM1918.63 4344.5H1760.11V4185.03H1918.63V4344.5ZM1918.63 4183.66V4024.2H1760.11V4183.66H1918.63ZM1758.74 4183.66V4024.2H1600.23V4183.66H1758.74ZM1598.86 4183.66V4024.2H1440.34V4183.66H1598.86ZM1438.97 4183.66V4024.2H1280.45V4183.66H1438.97ZM1279.08 4183.66V4024.2H1120.57V4183.66H1279.08ZM1119.2 4183.66V4024.2H960.681V4183.66H1119.2ZM959.311 4183.66V4024.2H800.8V4183.66H959.311ZM799.43 4183.66V4024.2H640.91V4183.66H799.43ZM639.54 4183.66V4024.2H481.03V4183.66H639.54ZM479.66 4183.66V4024.2H321.14V4183.66H479.66ZM319.771 4183.66V4024.2H161.261V4183.66H319.771ZM159.891 4183.66V4024.2H1.37096V4183.66H159.891ZM159.891 4022.83H1.37096V3863.37H159.891V4022.83ZM319.771 4022.83H161.261V3863.37H319.771V4022.83ZM479.66 4022.83H321.14V3863.37H479.66V4022.83ZM639.54 4022.83H481.03V3863.37H639.54V4022.83ZM799.43 4022.83H640.91V3863.37H799.43V4022.83ZM959.311 4022.83H800.8V3863.37H959.311V4022.83ZM1119.2 4022.83H960.681V3863.37H1119.2V4022.83ZM1279.08 4022.83H1120.57V3863.37H1279.08V4022.83ZM1438.97 4022.83H1280.45V3863.37H1438.97V4022.83ZM1598.86 4022.83H1440.34V3863.37H1598.86V4022.83ZM1758.74 4022.83H1600.23V3863.37H1758.74V4022.83ZM1918.63 4022.83H1760.11V3863.37H1918.63V4022.83ZM1.37096 7562.15H159.891V7402.7H1.37096V7562.15ZM161.261 7562.15H319.771V7402.7H161.261V7562.15ZM321.14 7562.15H479.66V7402.7H321.14V7562.15ZM481.03 7562.15H639.54V7402.7H481.03V7562.15ZM640.91 7562.15H799.43V7402.7H640.91V7562.15ZM800.8 7562.15H959.311V7402.7H800.8V7562.15ZM960.681 7562.15H1119.2V7402.7H960.681V7562.15ZM1120.57 7562.15H1279.08V7402.7H1120.57V7562.15ZM1280.45 7562.15H1438.97V7402.7H1280.45V7562.15ZM1440.34 7562.15H1598.86V7402.7H1440.34V7562.15ZM1600.23 7562.15H1758.74V7402.7H1600.23V7562.15ZM1760.11 7562.15H1918.63V7402.7H1760.11V7562.15ZM1918.63 7241.86V7401.33H1760.11V7241.86H1918.63ZM1758.74 7241.86V7401.33H1600.23V7241.86H1758.74ZM1598.86 7241.86V7401.33H1440.34V7241.86H1598.86ZM1438.97 7241.86V7401.33H1280.45V7241.86H1438.97ZM1279.08 7241.86V7401.33H1120.57V7241.86H1279.08ZM1119.2 7241.86V7401.33H960.681V7241.86H1119.2ZM959.311 7241.86V7401.33H800.8V7241.86H959.311ZM799.43 7241.86V7401.33H640.91V7241.86H799.43ZM639.54 7241.86V7401.33H481.03V7241.86H639.54ZM479.66 7241.86V7401.33H321.14V7241.86H479.66ZM319.771 7241.86V7401.33H161.261V7241.86H319.771ZM159.891 7241.86V7401.33H1.37096V7241.86H159.891ZM1.37096 7240.49H159.891V7081.03H1.37096V7240.49ZM161.261 7240.49H319.771V7081.03H161.261V7240.49ZM321.14 7240.49H479.66V7081.03H321.14V7240.49ZM481.03 7240.49H639.54V7081.03H481.03V7240.49ZM640.91 7240.49H799.43V7081.03H640.91V7240.49ZM800.8 7240.49H959.311V7081.03H800.8V7240.49ZM960.681 7240.49H1119.2V7081.03H960.681V7240.49ZM1120.57 7240.49H1279.08V7081.03H1120.57V7240.49ZM1280.45 7240.49H1438.97V7081.03H1280.45V7240.49ZM1440.34 7240.49H1598.86V7081.03H1440.34V7240.49ZM1600.23 7240.49H1758.74V7081.03H1600.23V7240.49ZM1760.11 7240.49H1918.63V7081.03H1760.11V7240.49ZM1918.63 6920.2V7079.66H1760.11V6920.2H1918.63ZM1758.74 6920.2V7079.66H1600.23V6920.2H1758.74ZM1598.86 6920.2V7079.66H1440.34V6920.2H1598.86ZM1438.97 6920.2V7079.66H1280.45V6920.2H1438.97ZM1279.08 6920.2V7079.66H1120.57V6920.2H1279.08ZM1119.2 6920.2V7079.66H960.681V6920.2H1119.2ZM959.311 6920.2V7079.66H800.8V6920.2H959.311ZM799.43 6920.2V7079.66H640.91V6920.2H799.43ZM639.54 6920.2V7079.66H481.03V6920.2H639.54ZM479.66 6920.2V7079.66H321.14V6920.2H479.66ZM319.771 6920.2V7079.66H161.261V6920.2H319.771ZM159.891 6920.2V7079.66H1.37096V6920.2H159.891ZM1.37096 6918.83H159.891V6759.36H1.37096V6918.83ZM161.261 6918.83H319.771V6759.36H161.261V6918.83ZM321.14 6918.83H479.66V6759.36H321.14V6918.83ZM481.03 6918.83H639.54V6759.36H481.03V6918.83ZM640.91 6918.83H799.43V6759.36H640.91V6918.83ZM800.8 6918.83H959.311V6759.36H800.8V6918.83ZM960.681 6918.83H1119.2V6759.36H960.681V6918.83ZM1120.57 6918.83H1279.08V6759.36H1120.57V6918.83ZM1280.45 6918.83H1438.97V6759.36H1280.45V6918.83ZM1440.34 6918.83H1598.86V6759.36H1440.34V6918.83ZM1600.23 6918.83H1758.74V6759.36H1600.23V6918.83ZM1760.11 6918.83H1918.63V6759.36H1760.11V6918.83ZM1918.63 6598.53V6757.99H1760.11V6598.53H1918.63ZM1758.74 6598.53V6757.99H1600.23V6598.53H1758.74ZM1598.86 6598.53V6757.99H1440.34V6598.53H1598.86ZM1438.97 6598.53V6757.99H1280.45V6598.53H1438.97ZM1279.08 6598.53V6757.99H1120.57V6598.53H1279.08ZM1119.2 6598.53V6757.99H960.681V6598.53H1119.2ZM959.311 6598.53V6757.99H800.8V6598.53H959.311ZM799.43 6598.53V6757.99H640.91V6598.53H799.43ZM639.54 6598.53V6757.99H481.03V6598.53H639.54ZM479.66 6598.53V6757.99H321.14V6598.53H479.66ZM319.771 6598.53V6757.99H161.261V6598.53H319.771ZM159.891 6598.53V6757.99H1.37096V6598.53H159.891ZM1.37096 6597.16H159.891V6437.7H1.37096V6597.16ZM161.261 6597.16H319.771V6437.7H161.261V6597.16ZM321.14 6597.16H479.66V6437.7H321.14V6597.16ZM481.03 6597.16H639.54V6437.7H481.03V6597.16ZM640.91 6597.16H799.43V6437.7H640.91V6597.16ZM800.8 6597.16H959.311V6437.7H800.8V6597.16ZM960.681 6597.16H1119.2V6437.7H960.681V6597.16ZM1120.57 6597.16H1279.08V6437.7H1120.57V6597.16ZM1280.45 6597.16H1438.97V6437.7H1280.45V6597.16ZM1440.34 6597.16H1598.86V6437.7H1440.34V6597.16ZM1600.23 6597.16H1758.74V6437.7H1600.23V6597.16ZM1760.11 6597.16H1918.63V6437.7H1760.11V6597.16ZM1918.63 6276.87V6436.33H1760.11V6276.87H1918.63ZM1758.74 6276.87V6436.33H1600.23V6276.87H1758.74ZM1598.86 6276.87V6436.33H1440.34V6276.87H1598.86ZM1438.97 6276.87V6436.33H1280.45V6276.87H1438.97ZM1279.08 6276.87V6436.33H1120.57V6276.87H1279.08ZM1119.2 6276.87V6436.33H960.681V6276.87H1119.2ZM959.311 6276.87V6436.33H800.8V6276.87H959.311ZM799.43 6276.87V6436.33H640.91V6276.87H799.43ZM639.54 6276.87V6436.33H481.03V6276.87H639.54ZM479.66 6276.87V6436.33H321.14V6276.87H479.66ZM319.771 6276.87V6436.33H161.261V6276.87H319.771ZM159.891 6276.87V6436.33H1.37096V6276.87H159.891ZM1.37096 6275.5H159.891V6116.03H1.37096V6275.5ZM161.261 6275.5H319.771V6116.03H161.261V6275.5ZM321.14 6275.5H479.66V6116.03H321.14V6275.5ZM481.03 6275.5H639.54V6116.03H481.03V6275.5ZM640.91 6275.5H799.43V6116.03H640.91V6275.5ZM800.8 6275.5H959.311V6116.03H800.8V6275.5ZM960.681 6275.5H1119.2V6116.03H960.681V6275.5ZM1120.57 6275.5H1279.08V6116.03H1120.57V6275.5ZM1280.45 6275.5H1438.97V6116.03H1280.45V6275.5ZM1440.34 6275.5H1598.86V6116.03H1440.34V6275.5ZM1600.23 6275.5H1758.74V6116.03H1600.23V6275.5ZM1760.11 6275.5H1918.63V6116.03H1760.11V6275.5ZM1918.63 5955.2V6114.66H1760.11V5955.2H1918.63ZM1758.74 5955.2V6114.66H1600.23V5955.2H1758.74ZM1598.86 5955.2V6114.66H1440.34V5955.2H1598.86ZM1438.97 5955.2V6114.66H1280.45V5955.2H1438.97ZM1279.08 5955.2V6114.66H1120.57V5955.2H1279.08ZM1119.2 5955.2V6114.66H960.681V5955.2H1119.2ZM959.311 5955.2V6114.66H800.8V5955.2H959.311ZM799.43 5955.2V6114.66H640.91V5955.2H799.43ZM639.54 5955.2V6114.66H481.03V5955.2H639.54ZM479.66 5955.2V6114.66H321.14V5955.2H479.66ZM319.771 5955.2V6114.66H161.261V5955.2H319.771ZM159.891 5955.2V6114.66H1.37096V5955.2H159.891ZM1.37096 5953.83H159.891V5794.37H1.37096V5953.83ZM161.261 5953.83H319.771V5794.37H161.261V5953.83ZM321.14 5953.83H479.66V5794.37H321.14V5953.83ZM481.03 5953.83H639.54V5794.37H481.03V5953.83ZM640.91 5953.83H799.43V5794.37H640.91V5953.83ZM800.8 5953.83H959.311V5794.37H800.8V5953.83ZM960.681 5953.83H1119.2V5794.37H960.681V5953.83ZM1120.57 5953.83H1279.08V5794.37H1120.57V5953.83ZM1280.45 5953.83H1438.97V5794.37H1280.45V5953.83ZM1440.34 5953.83H1598.86V5794.37H1440.34V5953.83ZM1600.23 5953.83H1758.74V5794.37H1600.23V5953.83ZM1760.11 5953.83H1918.63V5794.37H1760.11V5953.83ZM1918.63 9645.18V9486.52H1760.11V9645.18H1918.63ZM1758.74 9645.18V9486.52H1600.23V9645.18H1758.74ZM1598.86 9645.18V9486.52H1440.34V9645.18H1598.86ZM1438.97 9645.18V9486.52H1280.45V9645.18H1438.97ZM1279.08 9645.18V9486.52H1120.57V9645.18H1279.08ZM1119.2 9645.18V9486.52H960.681V9645.18H1119.2ZM959.311 9645.18V9486.52H800.8V9645.18H959.311ZM799.43 9645.18V9486.52H640.91V9645.18H799.43ZM639.54 9645.18V9486.52H481.03V9645.18H639.54ZM479.66 9645.18V9486.52H321.14V9645.18H479.66ZM319.771 9645.18V9486.52H161.261V9645.18H319.771ZM159.891 9645.18V9486.52H1.37096V9645.18H159.891ZM159.891 9485.15H1.37096V9325.7H159.891V9485.15ZM319.771 9485.15H161.261V9325.7H319.771V9485.15ZM479.66 9485.15H321.14V9325.7H479.66V9485.15ZM639.54 9485.15H481.03V9325.7H639.54V9485.15ZM799.43 9485.15H640.91V9325.7H799.43V9485.15ZM959.311 9485.15H800.8V9325.7H959.311V9485.15ZM1119.2 9485.15H960.681V9325.7H1119.2V9485.15ZM1279.08 9485.15H1120.57V9325.7H1279.08V9485.15ZM1438.97 9485.15H1280.45V9325.7H1438.97V9485.15ZM1598.86 9485.15H1440.34V9325.7H1598.86V9485.15ZM1758.74 9485.15H1600.23V9325.7H1758.74V9485.15ZM1918.63 9485.15H1760.11V9325.7H1918.63V9485.15ZM1918.63 9324.33V9164.86H1760.11V9324.33H1918.63ZM1758.74 9324.33V9164.86H1600.23V9324.33H1758.74ZM1598.86 9324.33V9164.86H1440.34V9324.33H1598.86ZM1438.97 9324.33V9164.86H1280.45V9324.33H1438.97ZM1279.08 9324.33V9164.86H1120.57V9324.33H1279.08ZM1119.2 9324.33V9164.86H960.681V9324.33H1119.2ZM959.311 9324.33V9164.86H800.8V9324.33H959.311ZM799.43 9324.33V9164.86H640.91V9324.33H799.43ZM639.54 9324.33V9164.86H481.03V9324.33H639.54ZM479.66 9324.33V9164.86H321.14V9324.33H479.66ZM319.771 9324.33V9164.86H161.261V9324.33H319.771ZM159.891 9324.33V9164.86H1.37096V9324.33H159.891ZM159.891 9163.49H1.37096V9004.03H159.891V9163.49ZM319.771 9163.49H161.261V9004.03H319.771V9163.49ZM479.66 9163.49H321.14V9004.03H479.66V9163.49ZM639.54 9163.49H481.03V9004.03H639.54V9163.49ZM799.43 9163.49H640.91V9004.03H799.43V9163.49ZM959.311 9163.49H800.8V9004.03H959.311V9163.49ZM1119.2 9163.49H960.681V9004.03H1119.2V9163.49ZM1279.08 9163.49H1120.57V9004.03H1279.08V9163.49ZM1438.97 9163.49H1280.45V9004.03H1438.97V9163.49ZM1598.86 9163.49H1440.34V9004.03H1598.86V9163.49ZM1758.74 9163.49H1600.23V9004.03H1758.74V9163.49ZM1918.63 9163.49H1760.11V9004.03H1918.63V9163.49ZM1918.63 9002.66V8843.2H1760.11V9002.66H1918.63ZM1758.74 9002.66V8843.2H1600.23V9002.66H1758.74ZM1598.86 9002.66V8843.2H1440.34V9002.66H1598.86ZM1438.97 9002.66V8843.2H1280.45V9002.66H1438.97ZM1279.08 9002.66V8843.2H1120.57V9002.66H1279.08ZM1119.2 9002.66V8843.2H960.681V9002.66H1119.2ZM959.311 9002.66V8843.2H800.8V9002.66H959.311ZM799.43 9002.66V8843.2H640.91V9002.66H799.43ZM639.54 9002.66V8843.2H481.03V9002.66H639.54ZM479.66 9002.66V8843.2H321.14V9002.66H479.66ZM319.771 9002.66V8843.2H161.261V9002.66H319.771ZM159.891 9002.66V8843.2H1.37096V9002.66H159.891ZM159.891 8841.83H1.37096V8682.36H159.891V8841.83ZM319.771 8841.83H161.261V8682.36H319.771V8841.83ZM479.66 8841.83H321.14V8682.36H479.66V8841.83ZM639.54 8841.83H481.03V8682.36H639.54V8841.83ZM799.43 8841.83H640.91V8682.36H799.43V8841.83ZM959.311 8841.83H800.8V8682.36H959.311V8841.83ZM1119.2 8841.83H960.681V8682.36H1119.2V8841.83ZM1279.08 8841.83H1120.57V8682.36H1279.08V8841.83ZM1438.97 8841.83H1280.45V8682.36H1438.97V8841.83ZM1598.86 8841.83H1440.34V8682.36H1598.86V8841.83ZM1758.74 8841.83H1600.23V8682.36H1758.74V8841.83ZM1918.63 8841.83H1760.11V8682.36H1918.63V8841.83ZM1918.63 8680.99V8521.53H1760.11V8680.99H1918.63ZM1758.74 8680.99V8521.53H1600.23V8680.99H1758.74ZM1598.86 8680.99V8521.53H1440.34V8680.99H1598.86ZM1438.97 8680.99V8521.53H1280.45V8680.99H1438.97ZM1279.08 8680.99V8521.53H1120.57V8680.99H1279.08ZM1119.2 8680.99V8521.53H960.681V8680.99H1119.2ZM959.311 8680.99V8521.53H800.8V8680.99H959.311ZM799.43 8680.99V8521.53H640.91V8680.99H799.43ZM639.54 8680.99V8521.53H481.03V8680.99H639.54ZM479.66 8680.99V8521.53H321.14V8680.99H479.66ZM319.771 8680.99V8521.53H161.261V8680.99H319.771ZM159.891 8680.99V8521.53H1.37096V8680.99H159.891ZM159.891 8520.16H1.37096V8360.7H159.891V8520.16ZM319.771 8520.16H161.261V8360.7H319.771V8520.16ZM479.66 8520.16H321.14V8360.7H479.66V8520.16ZM639.54 8520.16H481.03V8360.7H639.54V8520.16ZM799.43 8520.16H640.91V8360.7H799.43V8520.16ZM959.311 8520.16H800.8V8360.7H959.311V8520.16ZM1119.2 8520.16H960.681V8360.7H1119.2V8520.16ZM1279.08 8520.16H1120.57V8360.7H1279.08V8520.16ZM1438.97 8520.16H1280.45V8360.7H1438.97V8520.16ZM1598.86 8520.16H1440.34V8360.7H1598.86V8520.16ZM1758.74 8520.16H1600.23V8360.7H1758.74V8520.16ZM1918.63 8520.16H1760.11V8360.7H1918.63V8520.16ZM1918.63 8359.33V8199.87H1760.11V8359.33H1918.63ZM1758.74 8359.33V8199.87H1600.23V8359.33H1758.74ZM1598.86 8359.33V8199.87H1440.34V8359.33H1598.86ZM1438.97 8359.33V8199.87H1280.45V8359.33H1438.97ZM1279.08 8359.33V8199.87H1120.57V8359.33H1279.08ZM1119.2 8359.33V8199.87H960.681V8359.33H1119.2ZM959.311 8359.33V8199.87H800.8V8359.33H959.311ZM799.43 8359.33V8199.87H640.91V8359.33H799.43ZM639.54 8359.33V8199.87H481.03V8359.33H639.54ZM479.66 8359.33V8199.87H321.14V8359.33H479.66ZM319.771 8359.33V8199.87H161.261V8359.33H319.771ZM159.891 8359.33V8199.87H1.37096V8359.33H159.891ZM159.891 8198.5H1.37096V8039.03H159.891V8198.5ZM319.771 8198.5H161.261V8039.03H319.771V8198.5ZM479.66 8198.5H321.14V8039.03H479.66V8198.5ZM639.54 8198.5H481.03V8039.03H639.54V8198.5ZM799.43 8198.5H640.91V8039.03H799.43V8198.5ZM959.311 8198.5H800.8V8039.03H959.311V8198.5ZM1119.2 8198.5H960.681V8039.03H1119.2V8198.5ZM1279.08 8198.5H1120.57V8039.03H1279.08V8198.5ZM1438.97 8198.5H1280.45V8039.03H1438.97V8198.5ZM1598.86 8198.5H1440.34V8039.03H1598.86V8198.5ZM1758.74 8198.5H1600.23V8039.03H1758.74V8198.5ZM1918.63 8198.5H1760.11V8039.03H1918.63V8198.5ZM1918.63 8037.66V7878.2H1760.11V8037.66H1918.63ZM1758.74 8037.66V7878.2H1600.23V8037.66H1758.74ZM1598.86 8037.66V7878.2H1440.34V8037.66H1598.86ZM1438.97 8037.66V7878.2H1280.45V8037.66H1438.97ZM1279.08 8037.66V7878.2H1120.57V8037.66H1279.08ZM1119.2 8037.66V7878.2H960.681V8037.66H1119.2ZM959.311 8037.66V7878.2H800.8V8037.66H959.311ZM799.43 8037.66V7878.2H640.91V8037.66H799.43ZM639.54 8037.66V7878.2H481.03V8037.66H639.54ZM479.66 8037.66V7878.2H321.14V8037.66H479.66ZM319.771 8037.66V7878.2H161.261V8037.66H319.771ZM159.891 8037.66V7878.2H1.37096V8037.66H159.891Z" fill="url(#paint0_linear_315_2047)" fill-opacity="0.2"/>
<mask id="mask0_315_2047" style="mask-type:alpha" maskUnits="userSpaceOnUse" x="0" y="84" width="327" height="721">
<rect y="84" width="327" height="721" fill="#D9D9D9"/>
</mask>
<g mask="url(#mask0_315_2047)">
<g filter="url(#filter0_f_315_2047)">
<rect x="-277" y="207" width="475.157" height="475.157" rx="237.579" fill="url(#paint1_radial_315_2047)" fill-opacity="0.4"/>
</g>
<circle cx="-39.8179" cy="444.818" r="234.529" stroke="white" stroke-opacity="0.1" strokeWidth="0.8"/>
<circle cx="-39.5" cy="444.5" r="360.1" stroke="white" stroke-opacity="0.1" strokeWidth="0.8"/>
</g>
<mask id="mask1_315_2047" style="mask-type:alpha" maskUnits="userSpaceOnUse" x="1322" y="1251" width="598" height="1313">
<rect x="1322" y="1251" width="598" height="1313" fill="#D9D9D9"/>
</mask>
<g mask="url(#mask1_315_2047)">
<g filter="url(#filter1_f_315_2047)">
<circle cx="1976" cy="1931" r="267" fill="url(#paint2_linear_315_2047)" fill-opacity="0.4"/>
</g>
</g>
<mask id="mask2_315_2047" style="mask-type:alpha" maskUnits="userSpaceOnUse" x="0" y="4263" width="598" height="1443">
<rect width="598" height="1443" transform="matrix(-1 0 0 1 598 4263)" fill="#D9D9D9"/>
</mask>
<g mask="url(#mask2_315_2047)">
<g filter="url(#filter2_f_315_2047)">
<circle cx="267" cy="267" r="267" transform="matrix(-1 0 0 1 211 4741)" fill="url(#paint3_linear_315_2047)" fill-opacity="0.4"/>
</g>
</g>
<mask id="mask3_315_2047" style="mask-type:alpha" maskUnits="userSpaceOnUse" x="0" y="6809" width="598" height="1443">
<rect width="598" height="1443" transform="matrix(-1 0 0 1 598 6809)" fill="#D9D9D9"/>
</mask>
<g mask="url(#mask3_315_2047)">
<g filter="url(#filter3_f_315_2047)">
<circle cx="267" cy="267" r="267" transform="matrix(-1 0 0 1 211 7287)" fill="url(#paint4_linear_315_2047)" fill-opacity="0.4"/>
</g>
</g>
<mask id="mask4_315_2047" style="mask-type:alpha" maskUnits="userSpaceOnUse" x="1322" y="5443" width="598" height="1443">
<rect x="1322" y="5443" width="598" height="1443" fill="#D9D9D9"/>
</mask>
<g mask="url(#mask4_315_2047)">
<g filter="url(#filter4_f_315_2047)">
<circle cx="1976" cy="6188" r="267" fill="url(#paint5_linear_315_2047)" fill-opacity="0.4"/>
</g>
</g>
<mask id="mask5_315_2047" style="mask-type:alpha" maskUnits="userSpaceOnUse" x="1219" y="0" width="701" height="891">
<rect x="1219" width="701" height="891" fill="#D9D9D9"/>
</mask>
<g mask="url(#mask5_315_2047)">
<g filter="url(#filter5_f_315_2047)">
<circle cx="1918.5" cy="-13.5" r="263.5" fill="#FFA412" fill-opacity="0.6"/>
</g>
</g>
</g>
<defs>
<filter id="filter0_f_315_2047" x="-491.831" y="-7.83177" width="904.821" height="904.821" filterUnits="userSpaceOnUse" color-interpolation-filters="sRGB">
<feFlood flood-opacity="0" result="BackgroundImageFix"/>
<feBlend mode="normal" in="SourceGraphic" in2="BackgroundImageFix" result="shape"/>
<feGaussianBlur stdDeviation="107.416" result="effect1_foregroundBlur_315_2047"/>
</filter>
<filter id="filter1_f_315_2047" x="1209" y="1164" width="1534" height="1534" filterUnits="userSpaceOnUse" color-interpolation-filters="sRGB">
<feFlood flood-opacity="0" result="BackgroundImageFix"/>
<feBlend mode="normal" in="SourceGraphic" in2="BackgroundImageFix" result="shape"/>
<feGaussianBlur stdDeviation="250" result="effect1_foregroundBlur_315_2047"/>
</filter>
<filter id="filter2_f_315_2047" x="-823" y="4241" width="1534" height="1534" filterUnits="userSpaceOnUse" color-interpolation-filters="sRGB">
<feFlood flood-opacity="0" result="BackgroundImageFix"/>
<feBlend mode="normal" in="SourceGraphic" in2="BackgroundImageFix" result="shape"/>
<feGaussianBlur stdDeviation="250" result="effect1_foregroundBlur_315_2047"/>
</filter>
<filter id="filter3_f_315_2047" x="-823" y="6787" width="1534" height="1534" filterUnits="userSpaceOnUse" color-interpolation-filters="sRGB">
<feFlood flood-opacity="0" result="BackgroundImageFix"/>
<feBlend mode="normal" in="SourceGraphic" in2="BackgroundImageFix" result="shape"/>
<feGaussianBlur stdDeviation="250" result="effect1_foregroundBlur_315_2047"/>
</filter>
<filter id="filter4_f_315_2047" x="1209" y="5421" width="1534" height="1534" filterUnits="userSpaceOnUse" color-interpolation-filters="sRGB">
<feFlood flood-opacity="0" result="BackgroundImageFix"/>
<feBlend mode="normal" in="SourceGraphic" in2="BackgroundImageFix" result="shape"/>
<feGaussianBlur stdDeviation="250" result="effect1_foregroundBlur_315_2047"/>
</filter>
<filter id="filter5_f_315_2047" x="1155" y="-777" width="1527" height="1527" filterUnits="userSpaceOnUse" color-interpolation-filters="sRGB">
<feFlood flood-opacity="0" result="BackgroundImageFix"/>
<feBlend mode="normal" in="SourceGraphic" in2="BackgroundImageFix" result="shape"/>
<feGaussianBlur stdDeviation="250" result="effect1_foregroundBlur_315_2047"/>
</filter>
<linearGradient id="paint0_linear_315_2047" x1="1915.5" y1="7721.5" x2="474.815" y2="9381.88" gradientUnits="userSpaceOnUse">
<stop stop-color="#9E9E9E" stop-opacity="0.11"/>
<stop offset="0.423158" stop-color="#9E9E9E" stop-opacity="0.1"/>
<stop offset="1" stop-color="#9E9E9E" stop-opacity="0.3"/>
</linearGradient>
<radialGradient id="paint1_radial_315_2047" cx="0" cy="0" r="1" gradientUnits="userSpaceOnUse" gradientTransform="translate(-39.421 444.579) rotate(90) scale(237.579)">
<stop stop-color="#004883"/>
<stop offset="1" stop-color="#004883" stop-opacity="0"/>
</radialGradient>
<linearGradient id="paint2_linear_315_2047" x1="1889.35" y1="1785.17" x2="2344.45" y2="2209.27" gradientUnits="userSpaceOnUse">
<stop stop-color="#2F81AE"/>
<stop offset="1" stop-color="#5C3EBC"/>
</linearGradient>
<linearGradient id="paint3_linear_315_2047" x1="180.348" y1="121.172" x2="635.446" y2="545.272" gradientUnits="userSpaceOnUse">
<stop stop-color="#2F81AE"/>
<stop offset="1" stop-color="#5C3EBC"/>
</linearGradient>
<linearGradient id="paint4_linear_315_2047" x1="180.348" y1="121.172" x2="635.446" y2="545.272" gradientUnits="userSpaceOnUse">
<stop stop-color="#003B5B"/>
<stop offset="1" stop-color="#140054"/>
</linearGradient>
<linearGradient id="paint5_linear_315_2047" x1="1889.35" y1="6042.17" x2="2344.45" y2="6466.27" gradientUnits="userSpaceOnUse">
<stop stop-color="#053752"/>
<stop offset="1" stop-color="#5C3EBC"/>
</linearGradient>
<clipPath id="clip0_315_2047">
<rect width="1920" height="9076" fill="white"/>
</clipPath>
</defs>
</svg>
