<svg width="40" height="40" viewBox="0 0 40 40" fill="none" xmlns="http://www.w3.org/2000/svg">
<path d="M16.6667 21.6667C17.3824 22.6236 18.2956 23.4153 19.3442 23.9883C20.3929 24.5612 21.5525 24.9019 22.7444 24.9872C23.9363 25.0726 25.1326 24.9006 26.2522 24.483C27.3718 24.0653 28.3885 23.4118 29.2333 22.5667L34.2333 17.5667C35.7513 15.995 36.5913 13.89 36.5723 11.705C36.5533 9.52004 35.6769 7.42994 34.1318 5.88487C32.5867 4.3398 30.4966 3.46339 28.3117 3.44441C26.1267 3.42542 24.0217 4.26537 22.45 5.78336L19.5833 8.63336" stroke="white" stroke-width="2" stroke-linecap="round" stroke-linejoin="round"/>
<path d="M23.3333 18.3333C22.6176 17.3764 21.7044 16.5847 20.6557 16.0117C19.6071 15.4388 18.4475 15.0981 17.2556 15.0127C16.0637 14.9274 14.8674 15.0994 13.7478 15.517C12.6282 15.9346 11.6115 16.5882 10.7667 17.4333L5.76666 22.4333C4.24868 24.005 3.40873 26.11 3.42771 28.295C3.4467 30.48 4.32311 32.5701 5.86818 34.1151C7.41324 35.6602 9.50335 36.5366 11.6883 36.5556C13.8733 36.5746 15.9783 35.7346 17.55 34.2166L20.4 31.3666" stroke="white" stroke-width="2" stroke-linecap="round" stroke-linejoin="round"/>
</svg>
