<svg width="102" height="51" viewBox="0 0 102 51" fill="none" xmlns="http://www.w3.org/2000/svg">
<path d="M2 33.4206H17.65L25.3314 13.9899L40.9994 49.5L60.9567 1.5L71.0969 32.4317" stroke="#279B48" stroke-width="3" stroke-linecap="round" stroke-linejoin="round"/>
<path d="M101.805 23.568C101.484 22.3517 100.815 21.2607 99.8829 20.4342C98.9512 19.6078 97.7994 19.0835 96.5743 18.9282C95.3493 18.7729 94.1067 18.9938 93.0052 19.5625C91.9037 20.1312 90.9934 21.022 90.3904 22.1212C89.9676 21.3928 89.4058 20.7585 88.7382 20.256C88.0705 19.7535 87.3107 19.393 86.5039 19.196C85.6971 18.9989 84.8597 18.9693 84.0415 19.109C83.2233 19.2486 82.4409 19.5545 81.7408 20.0087C81.0407 20.4629 80.4371 21.056 79.966 21.7528C79.4949 22.4496 79.1659 23.2359 78.9984 24.065C78.8309 24.8941 78.8284 25.7491 78.991 26.5792C79.1536 27.4093 79.4781 28.1976 79.9451 28.8973L89.6904 40.9659C89.778 41.0703 89.8867 41.1542 90.0091 41.2116C90.1315 41.2691 90.2646 41.2989 90.3993 41.2989C90.534 41.2989 90.6672 41.2691 90.7895 41.2116C90.9119 41.1542 91.0206 41.0703 91.1082 40.9659L100.8 28.8973C101.342 28.1398 101.714 27.269 101.888 26.3476C102.062 25.4262 102.033 24.4769 101.805 23.568Z" fill="#279B48"/>
</svg>
