<svg width="50" height="50" viewBox="0 0 50 50" fill="none" xmlns="http://www.w3.org/2000/svg">
<path d="M12.2556 6.66113L24.5114 12.8634V28.0244L12.2556 21.8221V6.66113Z" fill="#FF8945"/>
<path d="M36.7673 6.66113L24.5115 12.8634V28.0244L36.7673 21.8221V6.66113Z" fill="#FF8945"/>
<path d="M24.5114 2.98629L31.8622 6.71575L24.5114 10.4317L17.1606 6.71575L24.5114 2.98629ZM24.5114 0.5L12.2556 6.71575L24.5114 12.918L36.7672 6.71575L24.5114 0.5Z" fill="#FF8945"/>
<path d="M2.21592 31.4719L10.0396 35.4446V45.6195L2.21592 41.6603V31.4719ZM-0.00012207 27.8641V43.0251L12.2557 49.2273V34.0663L-0.00012207 27.8506V27.8641Z" fill="#FF8945"/>
<path d="M22.2954 31.4727V41.6611L14.4717 45.6203V35.4184L22.2954 31.4457M24.5114 27.8379L12.2556 34.0671V49.2146L24.5114 43.0124V27.8649V27.8379Z" fill="#FF8945"/>
<path d="M12.2557 21.6621L24.5115 27.8643L12.2557 34.0801L-0.00012207 27.8643L12.2557 21.6621Z" fill="#FF8945"/>
<path d="M26.7276 31.4727L34.5514 35.4184V45.5933L26.7276 41.6341V31.4457M24.5116 27.8379V42.9988L36.7674 49.2011V34.0671L24.5116 27.8514V27.8379Z" fill="#FF8945"/>
<path d="M49.0231 27.8643L36.7673 34.08V49.241L49.0231 43.0253V27.8643Z" fill="#FF8945"/>
<path d="M36.7674 24.1484L44.1182 27.8643L36.7674 31.5938L29.4166 27.8643L36.7674 24.1484ZM36.7674 21.6621L24.5116 27.8643L36.7674 34.0801L49.0232 27.8643L36.7674 21.6621Z" fill="#FF8945"/>
</svg>
