<svg width="52" height="50" viewBox="0 0 52 50" fill="none" xmlns="http://www.w3.org/2000/svg">
<path d="M26.0826 26.098C32.7371 26.098 38.1316 20.7035 38.1316 14.049C38.1316 7.3945 32.7371 2 26.0826 2C19.4281 2 14.0336 7.3945 14.0336 14.049C14.0336 20.7035 19.4281 26.098 26.0826 26.098Z" stroke="#33589C" stroke-width="2.53996" stroke-linecap="round" stroke-linejoin="round"/>
<path d="M14.049 34.7914C20.7035 34.7914 26.098 29.3968 26.098 22.7423C26.098 16.0879 20.7035 10.6934 14.049 10.6934C7.39453 10.6934 2 16.0879 2 22.7423C2 29.3968 7.39453 34.7914 14.049 34.7914Z" stroke="#33589C" stroke-width="2.53996" stroke-linecap="round" stroke-linejoin="round"/>
<path d="M18.1015 48.0004C24.756 48.0004 30.1506 42.6059 30.1506 35.9514C30.1506 29.2969 24.756 23.9023 18.1015 23.9023C11.447 23.9023 6.05249 29.2969 6.05249 35.9514C6.05249 42.6059 11.447 48.0004 18.1015 48.0004Z" stroke="#33589C" stroke-width="2.53996" stroke-linecap="round" stroke-linejoin="round"/>
<path d="M38.2088 34.7914C44.8633 34.7914 50.2578 29.3968 50.2578 22.7423C50.2578 16.0879 44.8633 10.6934 38.2088 10.6934C31.5543 10.6934 26.1598 16.0879 26.1598 22.7423C26.1598 29.3968 31.5543 34.7914 38.2088 34.7914Z" stroke="#33589C" stroke-width="2.53996" stroke-linecap="round" stroke-linejoin="round"/>
<path d="M34.1566 48.0004C40.8111 48.0004 46.2056 42.6059 46.2056 35.9514C46.2056 29.2969 40.8111 23.9023 34.1566 23.9023C27.5021 23.9023 22.1075 29.2969 22.1075 35.9514C22.1075 42.6059 27.5021 48.0004 34.1566 48.0004Z" stroke="#33589C" stroke-width="2.53996" stroke-linecap="round" stroke-linejoin="round"/>
</svg>
