<svg width="70" height="38" viewBox="0 0 70 38" fill="none" xmlns="http://www.w3.org/2000/svg">
<path d="M41.1737 6.66249C44.0637 4.18834 47.7128 2.77697 51.5155 2.66269C55.3181 2.54841 59.0455 3.7381 62.0788 6.03425C65.1121 8.33039 67.269 11.5949 68.1912 15.2858C69.1134 18.9767 68.7457 22.872 67.1489 26.325C65.5521 29.7781 62.8223 32.5812 59.4128 34.269C56.0033 35.9568 52.1192 36.4278 48.4052 35.6037C44.6911 34.7797 41.3705 32.7102 38.9948 29.7389C36.619 26.7675 35.3309 23.073 35.3443 19.2686C35.3577 15.4989 34.0932 11.8359 31.757 8.87733C29.4208 5.91874 26.151 3.83919 22.4809 2.978C18.8109 2.11681 14.9572 2.52482 11.5489 4.13546C8.14053 5.7461 5.37868 8.46429 3.71388 11.8465C2.04908 15.2287 1.57968 19.0753 2.38221 22.7586C3.18474 26.4419 5.21188 29.7446 8.13283 32.1276C11.0538 34.5107 14.6961 35.8335 18.4655 35.8802C22.235 35.9269 25.9091 34.6948 28.8882 32.3849" stroke="#E48E16" stroke-width="2.3932" stroke-linecap="round" stroke-linejoin="round"/>
<path d="M39.4832 9.57702L48.1254 7.52214C48.2934 7.48041 48.4487 7.39832 48.5778 7.28299C48.7068 7.16765 48.8058 7.02256 48.8661 6.86031C48.9264 6.69805 48.9463 6.52352 48.9239 6.35188C48.9014 6.18024 48.8375 6.01666 48.7375 5.87533L44.9047 0.468533C44.8072 0.32426 44.6759 0.206097 44.5222 0.124408C44.3684 0.0427183 44.1971 0 44.023 0C43.8489 0 43.6774 0.0427183 43.5237 0.124408C43.37 0.206097 43.2386 0.32426 43.1412 0.468533L38.3465 7.93021C38.2195 8.10826 38.1504 8.32114 38.1487 8.53986C38.147 8.75859 38.2127 8.97253 38.3369 9.15254C38.4612 9.33255 38.6379 9.46989 38.8431 9.54585C39.0482 9.6218 39.2717 9.63269 39.4832 9.57702Z" fill="#E48E16"/>
</svg>
