<svg width="87" height="50" viewBox="0 0 87 50" fill="none" xmlns="http://www.w3.org/2000/svg">
<path d="M53.1433 0.0195312H30.6655V49.9995H53.1433V0.0195312Z" fill="#FF9F03"/>
<path d="M39.7889 3.38379H34.7498V7.17416H39.7889V3.38379Z" fill="#191919"/>
<path d="M49.074 3.38379H44.0349V7.17416H49.074V3.38379Z" fill="#191919"/>
<path d="M39.7889 8.76074H34.7498V12.5511H39.7889V8.76074Z" fill="#191919"/>
<path d="M49.074 8.76074H44.0349V12.5511H49.074V8.76074Z" fill="#191919"/>
<path d="M39.7889 14.1523H34.7498V17.9427H39.7889V14.1523Z" fill="#191919"/>
<path d="M49.074 14.1523H44.0349V17.9427H49.074V14.1523Z" fill="#191919"/>
<path d="M39.7889 19.5303H34.7498V23.3206H39.7889V19.5303Z" fill="#191919"/>
<path d="M49.074 19.5303H44.0349V23.3206H49.074V19.5303Z" fill="#191919"/>
<path d="M39.7889 24.9219H34.7498V28.7122H39.7889V24.9219Z" fill="#191919"/>
<path d="M49.074 24.9219H44.0349V28.7122H49.074V24.9219Z" fill="#191919"/>
<path d="M39.7889 30.3135H34.7498V34.1038H39.7889V30.3135Z" fill="#191919"/>
<path d="M49.074 30.3135H44.0349V34.1038H49.074V30.3135Z" fill="#191919"/>
<path d="M39.7889 35.6904H34.7498V39.4808H39.7889V35.6904Z" fill="#191919"/>
<path d="M49.074 35.6904H44.0349V39.4808H49.074V35.6904Z" fill="#191919"/>
<path d="M26.0231 19.1172H0.136963V49.9837H26.0231V19.1172Z" fill="#FF9F03"/>
<path d="M11.6258 21.2617H2.07642V23.5683H11.6258V21.2617Z" fill="#191919"/>
<path d="M24.0841 21.2617H14.5347V23.5683H24.0841V21.2617Z" fill="#191919"/>
<path d="M11.6258 24.5225H2.07642V26.829H11.6258V24.5225Z" fill="#191919"/>
<path d="M24.0841 24.5225H14.5347V26.829H24.0841V24.5225Z" fill="#191919"/>
<path d="M11.6258 27.7852H2.07642V30.0917H11.6258V27.7852Z" fill="#191919"/>
<path d="M24.0841 27.7852H14.5347V30.0917H24.0841V27.7852Z" fill="#191919"/>
<path d="M11.6258 31.0605H2.07642V33.3671H11.6258V31.0605Z" fill="#191919"/>
<path d="M24.0841 31.0605H14.5347V33.3671H24.0841V31.0605Z" fill="#191919"/>
<path d="M11.6258 34.3223H2.07642V36.6288H11.6258V34.3223Z" fill="#191919"/>
<path d="M24.0841 34.3223H14.5347V36.6288H24.0841V34.3223Z" fill="#191919"/>
<path d="M11.6258 37.584H2.07642V39.8905H11.6258V37.584Z" fill="#191919"/>
<path d="M24.0841 37.584H14.5347V39.8905H24.0841V37.584Z" fill="#191919"/>
<path d="M11.6258 40.8457H2.07642V43.1522H11.6258V40.8457Z" fill="#191919"/>
<path d="M24.0841 40.8457H14.5347V43.1522H24.0841V40.8457Z" fill="#191919"/>
<path d="M86.9627 11.8604H57.4331V49.9844H86.9627V11.8604Z" fill="#FF9F03"/>
<path d="M63.8387 14.46H60.1511V17.5598H63.8387V14.46Z" fill="#191919"/>
<path d="M70.6407 14.46H66.9531V17.5598H70.6407V14.46Z" fill="#191919"/>
<path d="M63.8387 18.8525H60.1511V21.9524H63.8387V18.8525Z" fill="#191919"/>
<path d="M70.6407 18.8525H66.9531V21.9524H70.6407V18.8525Z" fill="#191919"/>
<path d="M63.8387 23.2461H60.1511V26.346H63.8387V23.2461Z" fill="#191919"/>
<path d="M70.6407 23.2461H66.9531V26.346H70.6407V23.2461Z" fill="#191919"/>
<path d="M63.8387 27.6377H60.1511V30.7376H63.8387V27.6377Z" fill="#191919"/>
<path d="M70.6407 27.6377H66.9531V30.7376H70.6407V27.6377Z" fill="#191919"/>
<path d="M63.8387 32.0312H60.1511V35.1311H63.8387V32.0312Z" fill="#191919"/>
<path d="M70.6407 32.0312H66.9531V35.1311H70.6407V32.0312Z" fill="#191919"/>
<path d="M63.8387 36.4238H60.1511V39.5237H63.8387V36.4238Z" fill="#191919"/>
<path d="M70.6407 36.4238H66.9531V39.5237H70.6407V36.4238Z" fill="#191919"/>
<path d="M63.8387 40.8164H60.1511V43.9163H63.8387V40.8164Z" fill="#191919"/>
<path d="M70.6407 40.8164H66.9531V43.9163H70.6407V40.8164Z" fill="#191919"/>
<path d="M77.4429 14.46H73.7554V17.5598H77.4429V14.46Z" fill="#191919"/>
<path d="M84.2449 14.46H80.5574V17.5598H84.2449V14.46Z" fill="#191919"/>
<path d="M77.4429 18.8525H73.7554V21.9524H77.4429V18.8525Z" fill="#191919"/>
<path d="M84.2449 18.8525H80.5574V21.9524H84.2449V18.8525Z" fill="#191919"/>
<path d="M77.4429 23.2461H73.7554V26.346H77.4429V23.2461Z" fill="#191919"/>
<path d="M84.2449 23.2461H80.5574V26.346H84.2449V23.2461Z" fill="#191919"/>
<path d="M77.4429 27.6377H73.7554V30.7376H77.4429V27.6377Z" fill="#191919"/>
<path d="M84.2449 27.6377H80.5574V30.7376H84.2449V27.6377Z" fill="#191919"/>
<path d="M77.4429 32.0312H73.7554V35.1311H77.4429V32.0312Z" fill="#191919"/>
<path d="M84.2449 32.0312H80.5574V35.1311H84.2449V32.0312Z" fill="#191919"/>
<path d="M77.4429 36.4238H73.7554V39.5237H77.4429V36.4238Z" fill="#191919"/>
<path d="M84.2449 36.4238H80.5574V39.5237H84.2449V36.4238Z" fill="#191919"/>
<path d="M77.4429 40.8164H73.7554V43.9163H77.4429V40.8164Z" fill="#191919"/>
<path d="M84.2449 40.8164H80.5574V43.9163H84.2449V40.8164Z" fill="#191919"/>
</svg>
